<?xml version="1.0" encoding="UTF-8"?>
<svg width="719px" height="436px" viewBox="0 0 719 436" version="1.1" xmlns="http://www.w3.org/2000/svg" xmlns:xlink="http://www.w3.org/1999/xlink">
    <!-- Generator: Sketch 54.1 (76490) - https://sketchapp.com -->
    <title>illustration</title>
    <desc>Created with Sketch.</desc>
    <defs>
        <polygon id="path-1" points="0.665198979 0.590639832 719.520704 0.590639832 719.520704 99 0.665198979 99"></polygon>
        <linearGradient x1="-3.30605605%" y1="77.8585581%" x2="78.355694%" y2="77.8585581%" id="linearGradient-3">
            <stop stop-color="#FAB2FF" stop-opacity="0" offset="0%"></stop>
            <stop stop-color="#1904E5" offset="100%"></stop>
        </linearGradient>
        <path d="M5.77556452,0.642218182 C-13.2023387,9.77141818 22.6902419,25.5421455 10.3140323,47.5357455 L10.3140323,47.5357455 C-2.06322581,69.5314545 15.1041129,68.7268364 22.2279032,89.1934545 L22.2279032,89.1934545 C27.1322581,103.285345 2.06322581,115.596109 17.7397581,125.970727 L17.7397581,125.970727 C33.4173387,136.345345 48.62,169.876727 48.62,169.876727 L48.62,169.876727 C65.8837903,183.490909 51.011371,150.363418 62.4870161,122.590909 L62.4870161,122.590909 C73.9605645,94.8184 39.1929032,109.786618 57.6570968,75.3409455 L57.6570968,75.3409455 C76.1223387,40.8973818 36.0980645,63.5142182 38.368871,30.5227636 L38.368871,30.5227636 C39.078629,20.1913818 35.4176613,20.5594182 30.401129,20.9274545 L30.401129,20.9274545 C26.2631452,21.2311636 21.203629,21.5348727 16.9146774,15.834 L16.9146774,15.834 C16.9146774,15.834 12.1067742,0.366981818 6.94241935,0.366981818 L6.94241935,0.366981818 C6.55556452,0.366981818 6.16556452,0.454509091 5.77556452,0.642218182" id="path-4"></path>
        <linearGradient x1="-0.000654916928%" y1="50.0000484%" x2="99.9994671%" y2="50.0000484%" id="linearGradient-6">
            <stop stop-color="#3FD4E6" offset="0%"></stop>
            <stop stop-color="#5477FF" offset="100%"></stop>
        </linearGradient>
        <path d="M45.4526316,3.02852113 C43.9042105,3.87676056 42.6294737,5.21619718 41.28,6.63274648 L41.28,6.63274648 C38.1031579,9.97183099 34.1494737,14.1264085 24.1484211,14.1739437 L24.1484211,14.1739437 C18.4473684,14.2003521 15.3242105,14.9915493 13.7063158,16.8158451 L13.7063158,16.8158451 C11.8694737,18.8862676 12.2168421,21.984507 12.6947368,26.2742958 L12.6947368,26.2742958 C12.8621053,27.756338 13.0484211,29.4390845 13.1631579,31.2559859 L13.1631579,31.2559859 C13.8431579,42.0929577 7.46736842,49.9130282 7.40421053,49.9890845 L7.40421053,49.9890845 C3.59578947,54.5419014 -1.09789474,63.9855634 0.927368421,69.7964789 L0.927368421,69.7964789 C1.77684211,72.234507 3.67578947,73.7693662 6.57157895,74.3545775 L6.57157895,74.3545775 C7.72631579,74.5890845 8.77894737,74.7021127 9.74736842,74.7021127 L9.74736842,74.7021127 C16.7421053,74.7 19.3031579,68.8785211 22.6873684,61.1830986 L22.6873684,61.1830986 C23.3968421,59.5679577 24.1305263,57.9010563 24.9610526,56.1411972 L24.9610526,56.1411972 C29.2536842,47.0482394 33.0557895,45.5503521 39.3557895,43.0700704 L39.3557895,43.0700704 C40.8957895,42.4637324 42.6389474,41.775 44.5536842,40.9130282 L44.5536842,40.9130282 C53.5789474,36.8419014 51.8315789,30.8450704 50.2894737,25.5517606 L50.2894737,25.5517606 C50.0747368,24.8112676 49.8578947,24.0760563 49.6726316,23.3450704 L49.6726316,23.3450704 C48.88,20.2330986 50.4042105,18.671831 52.7115789,16.3077465 L52.7115789,16.3077465 C54.4284211,14.5510563 56.5621053,12.365493 58.2084211,8.91338028 L58.2084211,8.91338028 C60.0094737,5.13485915 59.0915789,3.10880282 58.0042105,2.07359155 L58.0042105,2.07359155 C57.0168421,1.13556338 55.4736842,0.676056338 53.6378947,0.676056338 L53.6378947,0.676056338 C51.2168421,0.676056338 48.2863158,1.47464789 45.4526316,3.02852113 M6.81894737,73.1334507 C4.38105263,72.6380282 2.79473684,71.3767606 2.10105263,69.3866197 L2.10105263,69.3866197 C0.315789474,64.2633803 4.58526316,55.2950704 8.35684211,50.7897887 L8.35684211,50.7897887 C8.63368421,50.4580986 15.1168421,42.5271127 14.4042105,31.1767606 L14.4042105,31.1767606 C14.2873684,29.3302817 14.0968421,27.6327465 13.9294737,26.1338028 L13.9294737,26.1338028 C13.4873684,22.1661972 13.1673684,19.2992958 14.6357895,17.6440141 L14.6357895,17.6440141 C15.9768421,16.1323944 18.9126316,15.446831 24.1557895,15.4225352 L24.1557895,15.4225352 C34.6821053,15.3707746 38.84,11.0049296 42.1789474,7.49471831 L42.1789474,7.49471831 C43.5157895,6.09084507 44.6684211,4.87816901 46.0484211,4.12183099 L46.0484211,4.12183099 C50.4989474,1.68380282 55.2715789,1.19366197 57.1494737,2.97992958 L57.1494737,2.97992958 C58.5757895,4.33732394 57.9021053,6.66338028 57.0863158,8.37464789 L57.0863158,8.37464789 C55.5305263,11.6408451 53.5621053,13.656338 51.8231579,15.4352113 L51.8231579,15.4352113 C49.4105263,17.9080986 47.5010526,19.8623239 48.4694737,23.6545775 L48.4694737,23.6545775 C48.6589474,24.3971831 48.8778947,25.1503521 49.0978947,25.9024648 L49.0978947,25.9024648 C50.6326316,31.1725352 52.0821053,36.15 44.0452632,39.7742958 L44.0452632,39.7742958 C42.1568421,40.6267606 40.4284211,41.3070423 38.9021053,41.9091549 L38.9021053,41.9091549 C32.5421053,44.4126761 28.3410526,46.0669014 23.8368421,55.6066901 L23.8368421,55.6066901 C23,57.381338 22.2631579,59.0588028 21.5505263,60.6792254 L21.5505263,60.6792254 C18.1515789,68.406338 15.9326316,73.4556338 9.75368421,73.4556338 L9.75368421,73.4556338 C8.86315789,73.4545775 7.88947368,73.35 6.81894737,73.1334507" id="path-7"></path>
        <linearGradient x1="0.000836680644%" y1="49.9991956%" x2="99.9994805%" y2="49.9991956%" id="linearGradient-9">
            <stop stop-color="#3FD4E6" offset="0%"></stop>
            <stop stop-color="#5477FF" offset="100%"></stop>
        </linearGradient>
        <path d="M30.4252326,9.71470588 C28.6168605,16.1163529 24.8222093,25.6563529 12.7883721,34.5314118 L12.7883721,34.5314118 C1.81883721,42.6218824 0.261627907,70.2667059 0.199883721,71.4398824 L0.199883721,71.4398824 L1.43372093,71.5034118 C1.44837209,71.2238824 3.01604651,43.2857647 13.5156977,35.5436471 L13.5156977,35.5436471 C25.8593023,26.4377647 29.7565116,16.6372941 31.6130233,10.0577647 L31.6130233,10.0577647 C33.5302326,3.26752941 43.965,1.32141176 44.0686047,1.30341176 L44.0686047,1.30341176 L43.8551163,0.0709411765 C43.3936047,0.153529412 32.5548837,2.16952941 30.4252326,9.71470588" id="path-10"></path>
        <linearGradient x1="0.000969250221%" y1="50.0003107%" x2="100.00073%" y2="50.0003107%" id="linearGradient-12">
            <stop stop-color="#3FD4E6" offset="0%"></stop>
            <stop stop-color="#5477FF" offset="100%"></stop>
        </linearGradient>
        <path d="M33.2025306,24.6463 C29.8628571,35.8444692 -3.96579592,29.5319308 10.234449,57.5705615 L10.234449,57.5705615 C24.4315102,85.6102462 -7.72465306,66.9487385 1.8804898,91.4179923 L1.8804898,91.4179923 C11.4866939,115.884085 2.71567347,142.053192 13.1581224,135.398154 L13.1581224,135.398154 C23.5963265,128.741008 19.0235102,97.9286538 29.8798367,94.2675923 L29.8798367,94.2675923 C40.7382857,90.6065308 42.5105306,86.3374 31.7603265,76.3838231 L31.7603265,76.3838231 C21.0090612,66.4291923 59.9305306,56.5472769 50.3243265,36.4504308 L50.3243265,36.4504308 C40.7202449,16.3535846 51.9426939,4.11948462 42.8066122,1.00958462 L42.8066122,1.00958462 C42.1794286,0.795653846 41.6116735,0.694484615 41.0969796,0.694484615 L41.0969796,0.694484615 C35.1286531,0.692376923 36.2790204,14.3375769 33.2025306,24.6463" id="path-13"></path>
        <linearGradient x1="0.000933683778%" y1="49.9996852%" x2="99.9994801%" y2="49.9996852%" id="linearGradient-15">
            <stop stop-color="#3FD4E6" offset="0%"></stop>
            <stop stop-color="#5477FF" offset="100%"></stop>
        </linearGradient>
        <polygon id="path-16" points="0.9065 0.954380952 12.2382826 43.2352381 37.5627609 43.2352381 48.8934783 0.954380952"></polygon>
        <linearGradient x1="0.00111323226%" y1="50.000529%" x2="99.9986741%" y2="50.000529%" id="linearGradient-18">
            <stop stop-color="#FF933F" offset="0%"></stop>
            <stop stop-color="#FFCD44" offset="100%"></stop>
        </linearGradient>
        <path d="M0.9065,0.954380952 L12.2382826,43.2352381 L23.9482174,43.2352381 C23.9482174,5.56180952 48.8934783,0.954380952 48.8934783,0.954380952 L48.8934783,0.954380952 L0.9065,0.954380952 Z" id="path-19"></path>
        <linearGradient x1="0.00111323226%" y1="50.000529%" x2="99.9986741%" y2="50.000529%" id="linearGradient-21">
            <stop stop-color="#C87231" offset="0%"></stop>
            <stop stop-color="#FFCD44" offset="100%"></stop>
        </linearGradient>
        <polygon id="path-22" points="0 0.847481842 80.2298319 0.847481842 80.2298319 71.3686082 0 71.3686082"></polygon>
        <polygon id="path-24" points="0.00162493258 0.469592105 39.2313654 0.469592105 39.2313654 39.6917287 0.00162493258 39.6917287"></polygon>
        <linearGradient x1="50.5086493%" y1="86.6939171%" x2="71.9415239%" y2="21.7568436%" id="linearGradient-26">
            <stop stop-color="#FDBFBF" offset="0%"></stop>
            <stop stop-color="#FB938C" offset="100%"></stop>
        </linearGradient>
        <linearGradient x1="50%" y1="0%" x2="50%" y2="100%" id="linearGradient-27">
            <stop stop-color="#DDD1F1" offset="0%"></stop>
            <stop stop-color="#A073D3" offset="100%"></stop>
        </linearGradient>
    </defs>
    <g id="Page-1" stroke="none" stroke-width="1" fill="none" fill-rule="evenodd">
        <g id="Home-Page-Design---Support-Team-Service" transform="translate(-851.000000, -193.000000)">
            <g id="illustration" transform="translate(850.000000, 193.000000)">
                <g id="Group-3" transform="translate(0.374016, 337.000000)">
                    <mask id="mask-2" fill="white">
                        <use xlink:href="#path-1"></use>
                    </mask>
                    <g id="Clip-2"></g>
                    <path d="M11.6778299,0.656559574 L685.996891,0.656559574 C685.996891,0.656559574 739.093196,-1.93745106 711.642405,25.4191979 C684.192669,52.7747936 578.521584,46.2460596 513.021642,85.4163574 C447.521701,124.585602 458.051437,66.9191553 372.079003,63.6563681 C286.105513,60.3914745 23.6391202,54.9475277 21.2679765,31.0116447 C18.8978886,7.07892128 -16.9015249,1.21159149 11.6778299,0.656559574" id="Fill-1" fill="url(#linearGradient-3)" opacity="0.45610119" mask="url(#mask-2)"></path>
                </g>
                <g id="Group-6" transform="translate(136.374016, 160.000000)">
                    <mask id="mask-5" fill="white">
                        <use xlink:href="#path-4"></use>
                    </mask>
                    <g id="Clip-5"></g>
                    <path d="M5.77556452,0.642218182 C-13.2023387,9.77141818 22.6902419,25.5421455 10.3140323,47.5357455 L10.3140323,47.5357455 C-2.06322581,69.5314545 15.1041129,68.7268364 22.2279032,89.1934545 L22.2279032,89.1934545 C27.1322581,103.285345 2.06322581,115.596109 17.7397581,125.970727 L17.7397581,125.970727 C33.4173387,136.345345 48.62,169.876727 48.62,169.876727 L48.62,169.876727 C65.8837903,183.490909 51.011371,150.363418 62.4870161,122.590909 L62.4870161,122.590909 C73.9605645,94.8184 39.1929032,109.786618 57.6570968,75.3409455 L57.6570968,75.3409455 C76.1223387,40.8973818 36.0980645,63.5142182 38.368871,30.5227636 L38.368871,30.5227636 C39.078629,20.1913818 35.4176613,20.5594182 30.401129,20.9274545 L30.401129,20.9274545 C26.2631452,21.2311636 21.203629,21.5348727 16.9146774,15.834 L16.9146774,15.834 C16.9146774,15.834 12.1067742,0.366981818 6.94241935,0.366981818 L6.94241935,0.366981818 C6.55556452,0.366981818 6.16556452,0.454509091 5.77556452,0.642218182" id="Fill-4" fill="url(#linearGradient-6)" mask="url(#mask-5)"></path>
                </g>
                <path d="M190.666747,317 C183.230531,311.702397 174.529772,274.783802 174.009998,252.793473 C173.74334,241.529207 170.45803,236.83629 167.557083,232.695295 C164.78634,228.737922 162.391626,225.320863 163.78533,217.472601 C166.45191,202.47363 159.444847,195.999369 159.374016,195.937106 L160.184406,195 C160.496896,195.275433 167.792492,201.953368 164.996749,217.693159 C163.692625,225.026434 165.841514,228.093134 168.560175,231.975581 C171.413207,236.049037 174.965175,241.119751 175.238083,252.762869 C175.797439,276.36253 184.692983,311.220125 191.374016,315.981636 L190.666747,317 Z" id="Fill-7" fill="#FFFFFF"></path>
                <g id="Group-11" transform="translate(183.374016, 246.000000)">
                    <mask id="mask-8" fill="white">
                        <use xlink:href="#path-7"></use>
                    </mask>
                    <g id="Clip-10"></g>
                    <path d="M45.4526316,3.02852113 C43.9042105,3.87676056 42.6294737,5.21619718 41.28,6.63274648 L41.28,6.63274648 C38.1031579,9.97183099 34.1494737,14.1264085 24.1484211,14.1739437 L24.1484211,14.1739437 C18.4473684,14.2003521 15.3242105,14.9915493 13.7063158,16.8158451 L13.7063158,16.8158451 C11.8694737,18.8862676 12.2168421,21.984507 12.6947368,26.2742958 L12.6947368,26.2742958 C12.8621053,27.756338 13.0484211,29.4390845 13.1631579,31.2559859 L13.1631579,31.2559859 C13.8431579,42.0929577 7.46736842,49.9130282 7.40421053,49.9890845 L7.40421053,49.9890845 C3.59578947,54.5419014 -1.09789474,63.9855634 0.927368421,69.7964789 L0.927368421,69.7964789 C1.77684211,72.234507 3.67578947,73.7693662 6.57157895,74.3545775 L6.57157895,74.3545775 C7.72631579,74.5890845 8.77894737,74.7021127 9.74736842,74.7021127 L9.74736842,74.7021127 C16.7421053,74.7 19.3031579,68.8785211 22.6873684,61.1830986 L22.6873684,61.1830986 C23.3968421,59.5679577 24.1305263,57.9010563 24.9610526,56.1411972 L24.9610526,56.1411972 C29.2536842,47.0482394 33.0557895,45.5503521 39.3557895,43.0700704 L39.3557895,43.0700704 C40.8957895,42.4637324 42.6389474,41.775 44.5536842,40.9130282 L44.5536842,40.9130282 C53.5789474,36.8419014 51.8315789,30.8450704 50.2894737,25.5517606 L50.2894737,25.5517606 C50.0747368,24.8112676 49.8578947,24.0760563 49.6726316,23.3450704 L49.6726316,23.3450704 C48.88,20.2330986 50.4042105,18.671831 52.7115789,16.3077465 L52.7115789,16.3077465 C54.4284211,14.5510563 56.5621053,12.365493 58.2084211,8.91338028 L58.2084211,8.91338028 C60.0094737,5.13485915 59.0915789,3.10880282 58.0042105,2.07359155 L58.0042105,2.07359155 C57.0168421,1.13556338 55.4736842,0.676056338 53.6378947,0.676056338 L53.6378947,0.676056338 C51.2168421,0.676056338 48.2863158,1.47464789 45.4526316,3.02852113 M6.81894737,73.1334507 C4.38105263,72.6380282 2.79473684,71.3767606 2.10105263,69.3866197 L2.10105263,69.3866197 C0.315789474,64.2633803 4.58526316,55.2950704 8.35684211,50.7897887 L8.35684211,50.7897887 C8.63368421,50.4580986 15.1168421,42.5271127 14.4042105,31.1767606 L14.4042105,31.1767606 C14.2873684,29.3302817 14.0968421,27.6327465 13.9294737,26.1338028 L13.9294737,26.1338028 C13.4873684,22.1661972 13.1673684,19.2992958 14.6357895,17.6440141 L14.6357895,17.6440141 C15.9768421,16.1323944 18.9126316,15.446831 24.1557895,15.4225352 L24.1557895,15.4225352 C34.6821053,15.3707746 38.84,11.0049296 42.1789474,7.49471831 L42.1789474,7.49471831 C43.5157895,6.09084507 44.6684211,4.87816901 46.0484211,4.12183099 L46.0484211,4.12183099 C50.4989474,1.68380282 55.2715789,1.19366197 57.1494737,2.97992958 L57.1494737,2.97992958 C58.5757895,4.33732394 57.9021053,6.66338028 57.0863158,8.37464789 L57.0863158,8.37464789 C55.5305263,11.6408451 53.5621053,13.656338 51.8231579,15.4352113 L51.8231579,15.4352113 C49.4105263,17.9080986 47.5010526,19.8623239 48.4694737,23.6545775 L48.4694737,23.6545775 C48.6589474,24.3971831 48.8778947,25.1503521 49.0978947,25.9024648 L49.0978947,25.9024648 C50.6326316,31.1725352 52.0821053,36.15 44.0452632,39.7742958 L44.0452632,39.7742958 C42.1568421,40.6267606 40.4284211,41.3070423 38.9021053,41.9091549 L38.9021053,41.9091549 C32.5421053,44.4126761 28.3410526,46.0669014 23.8368421,55.6066901 L23.8368421,55.6066901 C23,57.381338 22.2631579,59.0588028 21.5505263,60.6792254 L21.5505263,60.6792254 C18.1515789,68.406338 15.9326316,73.4556338 9.75368421,73.4556338 L9.75368421,73.4556338 C8.86315789,73.4545775 7.88947368,73.35 6.81894737,73.1334507" id="Fill-9" fill="url(#linearGradient-9)" mask="url(#mask-8)"></path>
                </g>
                <g id="Group-14" transform="translate(189.374016, 256.000000)">
                    <mask id="mask-11" fill="white">
                        <use xlink:href="#path-10"></use>
                    </mask>
                    <g id="Clip-13"></g>
                    <path d="M30.4252326,9.71470588 C28.6168605,16.1163529 24.8222093,25.6563529 12.7883721,34.5314118 L12.7883721,34.5314118 C1.81883721,42.6218824 0.261627907,70.2667059 0.199883721,71.4398824 L0.199883721,71.4398824 L1.43372093,71.5034118 C1.44837209,71.2238824 3.01604651,43.2857647 13.5156977,35.5436471 L13.5156977,35.5436471 C25.8593023,26.4377647 29.7565116,16.6372941 31.6130233,10.0577647 L31.6130233,10.0577647 C33.5302326,3.26752941 43.965,1.32141176 44.0686047,1.30341176 L44.0686047,1.30341176 L43.8551163,0.0709411765 C43.3936047,0.153529412 32.5548837,2.16952941 30.4252326,9.71470588" id="Fill-12" fill="url(#linearGradient-12)" mask="url(#mask-11)"></path>
                </g>
                <g id="Group-17" transform="translate(173.374016, 188.000000)">
                    <mask id="mask-14" fill="white">
                        <use xlink:href="#path-13"></use>
                    </mask>
                    <g id="Clip-16"></g>
                    <path d="M33.2025306,24.6463 C29.8628571,35.8444692 -3.96579592,29.5319308 10.234449,57.5705615 L10.234449,57.5705615 C24.4315102,85.6102462 -7.72465306,66.9487385 1.8804898,91.4179923 L1.8804898,91.4179923 C11.4866939,115.884085 2.71567347,142.053192 13.1581224,135.398154 L13.1581224,135.398154 C23.5963265,128.741008 19.0235102,97.9286538 29.8798367,94.2675923 L29.8798367,94.2675923 C40.7382857,90.6065308 42.5105306,86.3374 31.7603265,76.3838231 L31.7603265,76.3838231 C21.0090612,66.4291923 59.9305306,56.5472769 50.3243265,36.4504308 L50.3243265,36.4504308 C40.7202449,16.3535846 51.9426939,4.11948462 42.8066122,1.00958462 L42.8066122,1.00958462 C42.1794286,0.795653846 41.6116735,0.694484615 41.0969796,0.694484615 L41.0969796,0.694484615 C35.1286531,0.692376923 36.2790204,14.3375769 33.2025306,24.6463" id="Fill-15" fill="url(#linearGradient-15)" mask="url(#mask-14)"></path>
                </g>
                <path d="M191.335181,322 C190.330882,317.814962 181.754145,280.996939 189.755312,276.546652 C196.810058,272.624757 196.636423,257.367682 195.535659,242.961087 C194.562443,230.208088 211.240026,224.248408 211.950645,224 L212.374016,225.171516 C212.210027,225.229408 195.895792,231.062779 196.798268,242.86846 C197.927971,257.663455 198.049087,273.363665 190.380186,277.627646 C184.301871,281.008517 189.897865,310.597454 192.566707,321.714752 L191.335181,322 Z" id="Fill-18" fill="#FFFFFF"></path>
                <g id="Group-22" transform="translate(160.374016, 308.000000)">
                    <mask id="mask-17" fill="white">
                        <use xlink:href="#path-16"></use>
                    </mask>
                    <g id="Clip-21"></g>
                    <polygon id="Fill-20" fill="url(#linearGradient-18)" mask="url(#mask-17)" points="0.9065 0.954380952 12.2382826 43.2352381 37.5627609 43.2352381 48.8934783 0.954380952"></polygon>
                </g>
                <g id="Group-25" transform="translate(160.374016, 308.000000)">
                    <mask id="mask-20" fill="white">
                        <use xlink:href="#path-19"></use>
                    </mask>
                    <g id="Clip-24"></g>
                    <path d="M0.9065,0.954380952 L12.2382826,43.2352381 L23.9482174,43.2352381 C23.9482174,5.56180952 48.8934783,0.954380952 48.8934783,0.954380952 L48.8934783,0.954380952 L0.9065,0.954380952 Z" id="Fill-23" fill="url(#linearGradient-21)" mask="url(#mask-20)"></path>
                </g>
                <g id="Group-295" transform="translate(35.374016, 0.000000)">
                    <polygon id="Fill-26" fill="#FFCA55" points="320.193114 176.993394 266.932713 177.238215 267.111088 215.834465 267.14803 223.964212 275.24248 215.796476 320.37149 215.588589"></polygon>
                    <path d="M297.724552,197.944167 C297.730885,200.189767 295.916521,202.016427 293.669411,202.022759 C291.422302,202.031201 289.596327,200.215093 289.588939,197.969493 C289.58155,195.723893 291.39697,193.897232 293.64408,193.889846 C295.891189,193.881403 297.717164,195.697511 297.724552,197.944167" id="Fill-28" fill="#FFFFFF"></path>
                    <path d="M311.083929,197.900795 C311.091318,200.147451 309.274843,201.975166 307.028789,201.981498 C304.781679,201.987829 302.955705,200.173832 302.948316,197.927177 C302.940928,195.680522 304.757403,193.854916 307.003457,193.847529 C309.249511,193.840143 311.076541,195.656251 311.083929,197.900795" id="Fill-30" fill="#FFFFFF"></path>
                    <path d="M284.671263,197.985322 C284.678651,200.230922 282.862176,202.057582 280.616122,202.063914 C278.370068,202.072356 276.543038,200.256248 276.536705,198.010648 C276.528261,195.763993 278.344736,193.938388 280.59079,193.931001 C282.836844,193.923614 284.663874,195.739722 284.671263,197.985322" id="Fill-32" fill="#FFFFFF"></path>
                    <polygon id="Fill-34" fill="#78C2FF" points="304.385242 71.4795303 357.644588 71.7243513 357.467268 110.320601 357.429271 118.450349 349.335877 110.282612 304.207922 110.074725"></polygon>
                    <path d="M326.854754,92.4301974 C326.84631,94.6768526 328.662785,96.5024579 330.909895,96.5109 C333.155949,96.5172316 334.981923,94.7021789 334.989312,92.4555237 C334.997756,90.2099237 333.181281,88.3832632 330.935226,88.3758763 C328.688117,88.3674342 326.861087,90.1835421 326.854754,92.4301974" id="Fill-36" fill="#FFFFFF"></path>
                    <path d="M313.494849,92.3889366 C313.487461,94.6345366 315.301825,96.4611971 317.548934,96.4675287 C319.796044,96.4738603 321.623074,94.6598629 321.630462,92.4132076 C321.636795,90.1676076 319.822431,88.3409471 317.575321,88.3335603 C315.328212,88.3261734 313.502237,90.1422813 313.494849,92.3889366" id="Fill-38" fill="#FFFFFF"></path>
                    <path d="M339.906988,92.4713526 C339.8996,94.7169526 341.715019,96.5436132 343.962129,96.5499447 C346.209238,96.5583868 348.035213,94.7422789 348.043657,92.4966789 C348.048934,90.2510789 346.23457,88.4244184 343.98746,88.4170316 C341.741406,88.4096447 339.915432,90.2257526 339.906988,92.4713526" id="Fill-40" fill="#FFFFFF"></path>
                    <polygon id="Fill-42" fill="#2EDEFE" points="555.694309 60.8959795 479.96809 61.2442163 480.219294 116.122122 480.273123 127.680419 491.779928 116.068303 555.945513 115.771774"></polygon>
                    <path d="M523.745457,90.6844755 C523.758123,93.8787571 521.174316,96.4736492 517.9815,96.4842018 C514.788683,96.4947545 512.189044,93.9146361 512.179545,90.7203545 C512.170046,87.5281834 514.751741,84.9301255 517.945613,84.9206282 C521.13843,84.9100755 523.738069,87.4912492 523.745457,90.6844755" id="Fill-44" fill="#FFFFFF"></path>
                    <path d="M542.743084,90.6246421 C542.752584,93.8178684 540.169833,96.4148711 536.977016,96.4254237 C533.782089,96.4349211 531.184561,93.8548026 531.175062,90.6615763 C531.163451,87.4672947 533.745147,84.8702921 536.939019,84.8597395 C540.135002,84.8491868 542.731474,87.4324711 542.743084,90.6246421" id="Fill-46" fill="#FFFFFF"></path>
                    <path d="M505.189124,90.7431482 C505.196512,93.9363745 502.616928,96.5333771 499.420945,96.5439297 C496.228128,96.5544824 493.630601,93.9733087 493.620046,90.7790271 C493.610547,87.5868561 496.192242,84.9887982 499.386114,84.9793008 C502.581042,84.9687482 505.177514,87.5499218 505.189124,90.7431482" id="Fill-48" fill="#FFFFFF"></path>
                    <polygon id="Fill-50" fill="#78C2FF" points="678.038816 101.401939 611.408693 101.709021 611.631399 149.993642 611.676784 160.164268 621.804082 149.946155 678.261521 149.68656"></polygon>
                    <path d="M649.930631,127.61246 C649.940131,130.422626 647.666634,132.707271 644.8559,132.716768 C642.046222,132.726265 639.760059,130.454284 639.75056,127.644118 C639.743172,124.833952 642.015613,122.549307 644.825291,122.53981 C647.636025,122.532423 649.921132,124.801239 649.930631,127.61246" id="Fill-52" fill="#FFFFFF"></path>
                    <path d="M666.642941,127.558853 C666.65244,130.369018 664.379999,132.654718 661.569265,132.664216 C658.760642,132.672658 656.472369,130.400676 656.463925,127.591566 C656.455482,124.7814 658.726867,122.496755 661.537601,122.488313 C664.34728,122.478816 666.633442,124.749742 666.642941,127.558853" id="Fill-54" fill="#FFFFFF"></path>
                    <path d="M633.59956,127.663957 C633.609059,130.474123 631.337673,132.758767 628.526939,132.768265 C625.717261,132.777762 623.430043,130.505781 623.421599,127.695615 C623.413156,124.885449 625.685597,122.600804 628.496331,122.591307 C631.306009,122.58392 633.592171,124.852736 633.59956,127.663957" id="Fill-56" fill="#FFFFFF"></path>
                    <g id="Group-60" transform="translate(153.000000, 0.000000)">
                        <mask id="mask-23" fill="white">
                            <use xlink:href="#path-22"></use>
                        </mask>
                        <g id="Clip-59"></g>
                        <polygon id="Fill-58" fill="#34D4FF" mask="url(#mask-23)" points="0.265874538 0.847481842 80.2298319 1.21682395 79.9638518 59.1634345 79.906856 71.3686082 67.7551548 59.1064503 -0.000105547653 58.7951476"></polygon>
                    </g>
                    <path d="M186.999854,32.3033992 C186.9893,35.674965 189.715595,38.4175939 193.088898,38.4292018 C196.461146,38.4386992 199.204329,35.7140097 199.213829,32.3424439 C199.224383,28.9687676 196.499143,26.2271939 193.126896,26.2166413 C189.753593,26.2071439 187.010409,28.9318334 186.999854,32.3033992" id="Fill-61" fill="#FFFFFF"></path>
                    <path d="M166.943795,32.2394503 C166.932185,35.6110161 169.657425,38.3547003 173.031783,38.3652529 C176.404031,38.3758055 179.147215,35.6500608 179.156714,32.278495 C179.168324,28.9069292 176.442028,26.163245 173.069781,26.1526924 C169.696478,26.143195 166.953294,28.8678845 166.943795,32.2394503" id="Fill-63" fill="#FFFFFF"></path>
                    <path d="M206.597309,32.3652376 C206.586754,35.7368034 209.31305,38.4783771 212.686353,38.4910403 C216.057545,38.5005376 218.801784,35.7758482 218.812339,32.4042824 C218.822894,29.0327166 216.095543,26.2890324 212.723295,26.2774245 C209.349992,26.2689824 206.607864,28.9936718 206.597309,32.3652376" id="Fill-65" fill="#FFFFFF"></path>
                    <path d="M219.874925,183.041635 C217.132797,182.030693 215.730069,178.988369 216.74016,176.246795 C217.751306,173.504166 220.795301,172.100666 223.53954,173.112664 C226.280612,174.124661 227.683341,177.166985 226.672194,179.907503 C225.661048,182.651187 222.619164,184.053632 219.874925,183.041635 M229.677136,181.016585 C231.300459,176.616137 229.047016,171.731324 224.646735,170.109385 C220.245397,168.485335 215.360652,170.737266 213.737329,175.138769 C213.737329,175.138769 213.561065,175.478564 213.391133,176.336493 C213.334137,176.616137 213.288752,176.898948 213.258143,177.179648 C212.923557,179.781927 212.890837,185.241858 215.246661,195.586603 C223.756968,189.250803 227.276982,185.079348 228.71243,182.88229 C228.873918,182.646966 229.02274,182.404256 229.161008,182.149937 C229.589531,181.390148 229.677136,181.016585 229.677136,181.016585" id="Fill-67" fill="#FFCA55"></path>
                    <path d="M594.102678,62.9714711 L584.502063,58.8010711 C583.714678,58.4602211 583.353705,57.5431974 583.696735,56.7570263 C584.039765,55.9698 584.953807,55.6089 585.741193,55.9518605 L592.530018,58.9013211 L597.430595,48.0394974 C597.786291,47.2554368 598.705611,46.9072 599.488775,47.2617684 C600.270883,47.6142263 600.61919,48.5333605 600.266661,49.3174211 L594.102678,62.9714711 Z" id="Fill-69" fill="#FFCA55"></path>
                    <g id="Group-73" transform="translate(574.119488, 36.000000)">
                        <mask id="mask-25" fill="white">
                            <use xlink:href="#path-24"></use>
                        </mask>
                        <g id="Clip-72"></g>
                        <path d="M9.94581935,6.32165947 C2.36010953,11.6539042 0.524635846,22.1622147 5.8558478,29.7474463 C11.1860043,37.3347884 21.697495,39.1688358 29.2863713,33.8387016 C36.874192,28.5075121 38.7086102,17.9992016 33.3773983,10.4129147 C28.0440754,2.82557263 17.5336401,0.991525263 9.94581935,6.32165947 M30.8980839,36.1317884 C22.0447468,42.3515095 9.78222048,40.2093253 3.56124182,31.3598884 C-2.65762589,22.5093963 -0.517119488,10.2482937 8.33621764,4.02962789 C17.1874438,-2.19009316 29.4499701,-0.0489642105 35.6698933,8.80258316 C41.8919275,17.65202 39.7493101,29.9120674 30.8980839,36.1317884" id="Fill-71" fill="#FFCA55" mask="url(#mask-25)"></path>
                    </g>
                    <polygon id="Fill-74" fill="#FFC655" points="197.622314 151.689766 172.080837 146.475711 175.651514 128.991056 201.191935 134.206166"></polygon>
                    <polygon id="Fill-76" fill="#FFBC55" points="172.080626 146.475289 186.846743 139.308997 197.622102 151.689344"></polygon>
                    <polygon id="Fill-78" fill="#FFA655" points="201.191724 134.20585 186.197624 142.491776 175.651303 128.991794"></polygon>
                    <path d="M554.133682,141.496768 C547.44196,141.428176 545.139966,147.451618 545.139966,147.451618 C545.139966,147.451618 539.572327,144.196132 534.400492,148.437234 C529.228657,152.680447 531.885292,156.833963 531.885292,156.833963 C535.53513,165.736163 553.161588,170.241082 553.161588,170.241082 C553.161588,170.241082 564.083659,155.692168 561.354197,146.466003 C561.354197,146.466003 560.822236,141.564305 554.133682,141.496768" id="Fill-80" fill="#FFCA55"></path>
                    <path d="M88.5846219,108.306526 C82.8776603,110.150071 79.7365622,116.292758 81.5804797,121.998566 C82.7056176,125.473547 85.4815209,128.138087 89.0047016,129.125813 L89.1387471,129.162747 L89.2326845,129.265108 C90.5573075,130.713984 92.3864484,132.951142 93.5791368,135.369805 L93.5939135,135.403573 C93.9633303,136.325873 94.7412165,137.024458 95.7850828,137.372694 C96.8574469,137.730429 98.0733559,137.6745 99.2111596,137.217571 C101.534263,136.286829 102.792391,133.956808 102.017672,132.023566 L102.010283,132.006681 L102.005006,131.988742 C101.380164,130.011179 101.019191,127.62945 100.933697,124.911092 L100.927364,124.758079 L101.011803,124.630392 C102.835666,121.856105 103.296909,118.459213 102.278374,115.308197 C100.433401,109.603444 94.290528,106.461926 88.5846219,108.306526 M99.1509974,138.270723 C97.9234782,138.666447 96.6336859,138.675944 95.4779391,138.290773 C94.1670373,137.85495 93.1812222,136.963252 92.7009804,135.782413 C91.5863972,133.525205 89.8807471,131.419955 88.6088979,130.019621 C84.8345138,128.91265 81.8686248,126.036002 80.6590486,122.295094 C78.6504768,116.08276 82.0712762,109.392392 88.285922,107.384226 C94.5005679,105.37606 101.191234,108.795113 103.199805,115.009558 C104.294335,118.391676 103.822537,122.0355 101.906847,125.032447 C101.998673,127.58935 102.340648,129.826508 102.923271,131.680605 C103.883754,134.1056 102.384978,136.990689 99.5731881,138.116655 C99.4328097,138.173639 99.2924313,138.225347 99.1509974,138.270723" id="Fill-82" fill="#FFD255"></path>
                    <polygon id="Fill-84" fill="#FFD255" points="95.5884475 135.363051 89.2640321 124.005254 92.5982825 125.046799 93.4416083 122.700949 95.4343479 123.762543 96.9552896 120.838409 100.436251 133.381267 99.5021545 133.640862 96.6798102 123.46918 95.8428174 125.078457 93.9746239 124.084399 93.1956822 126.249799 91.2905471 125.65463 96.4359952 134.892404"></polygon>
                    <polygon id="Fill-86" fill="#FFD255" points="104.284835 138.599966 96.4880302 141.728821 95.2267357 138.587302 103.024596 135.458447"></polygon>
                    <polygon id="Fill-88" fill="#FFD255" points="105.019764 136.803802 94.7140908 140.939378 92.6844094 135.882557 102.989027 131.746981"></polygon>
                    <path d="M673.323263,248.163929 C673.296876,315.002187 671.423405,328.08534 654.637107,343.060579 C648.062543,348.924677 635.97206,361.10769 601.08645,367.173342 C590.614011,368.995782 578.088671,370.265263 563.04602,370.648324 C556.907368,370.804503 551.27429,370.581842 546.120398,370.020442 C541.799277,369.554016 537.814853,368.845934 534.155516,367.929966 C495.814276,358.324961 492.950768,325.48095 509.720179,297.85205 C514.161624,290.534856 519.237411,283.808608 524.557013,277.538234 C532.769676,267.853029 541.574461,259.250524 549.546475,251.219971 C556.895758,243.821521 563.541038,236.907437 568.369844,230.081995 C570.406913,227.206403 572.121007,224.34664 573.429798,221.471048 C573.740108,220.791458 574.05464,220.117145 574.369172,219.451274 C575.402484,217.278487 576.462182,215.191177 577.534546,213.193563 C579.548395,209.443158 581.599186,206.014608 583.578205,202.945903 C585.155087,200.495582 586.686583,198.276363 588.111477,196.305132 C593.006777,189.53984 596.643949,185.741948 596.643949,185.741948 C596.643949,185.741948 597.096748,185.528784 597.935852,185.180548 C598.380208,184.994821 598.937499,184.77005 599.594006,184.518898 C599.857875,184.418648 600.13441,184.313121 600.428888,184.205484 C600.720199,184.097848 601.027343,183.987045 601.349263,183.872021 C601.643741,183.769661 601.950885,183.660969 602.265417,183.553332 C602.636945,183.425645 603.024304,183.297958 603.426441,183.16605 C603.662868,183.090071 603.903516,183.011982 604.150498,182.934948 C604.296154,182.889571 604.44392,182.84314 604.591687,182.797763 C604.647627,182.780879 604.704623,182.761884 604.761619,182.746056 C609.739246,181.220145 616.566068,179.630919 623.997679,179.366048 C646.030751,178.579877 673.34965,189.442756 673.323263,248.163929" id="Fill-90" fill="url(#linearGradient-26)"></path>
                    <path d="M584.131275,348.786965 C584.131275,348.786965 584.681178,353.266557 585.407346,355.242009 C586.13668,357.218517 590.090495,361.78042 588.41862,366.162928 C586.608478,370.914778 578.704014,366.334936 575.478478,364.883949 C572.253997,363.435073 572.988609,360.805357 572.645579,357.581528 C572.301494,354.359809 570.727778,354.273278 571.309346,352.007628 C571.887747,349.741978 575.415149,345.404846 575.415149,345.404846 L584.131275,348.786965 Z" id="Fill-92" fill="#4252CB"></path>
                    <path d="M576.93778,343.060263 C576.93778,343.060263 574.913376,345.891534 574.971427,345.969623 C575.026312,346.045602 583.639,351.289205 584.237455,349.589176 C584.713475,348.237384 584.915071,346.280926 584.915071,346.280926 L576.93778,343.060263 Z" id="Fill-94" fill="#EEA886"></path>
                    <path d="M547.744143,351.954865 C547.744143,351.954865 545.118118,354.256394 542.757017,357.794691 C540.398027,361.332988 534.133774,361.51977 533.867793,366.35182 C533.598647,371.180704 542.382323,371.328441 546.992644,369.756099 C551.605077,368.184812 552.300636,363.467786 555.089205,362.286946 C557.878829,361.108217 559.327998,360.154259 559.112681,357.851675 C558.897364,355.548036 557.354257,351.810294 557.354257,351.810294 C557.354257,351.810294 555.621165,352.363252 554.603685,352.476165 C553.584095,352.588023 550.156963,352.629178 547.744143,351.954865" id="Fill-96" fill="#4252CB"></path>
                    <path d="M579.352816,221.096007 C579.352816,221.096007 577.585948,231.604318 576.16211,238.544783 C575.582653,241.35917 575.063359,243.587886 574.738272,244.289636 C574.329803,245.171836 571.013496,248.732294 566.954133,252.913247 C559.829666,260.245215 550.417982,269.478768 550.417982,269.478768 L546.737535,262.493981 C546.737535,262.493981 555.097965,252.695862 560.765874,246.157452 C563.388733,243.133068 565.435302,240.806212 565.809996,240.469583 C566.994241,239.410099 568.370582,228.967215 570.304215,220.36471 C572.235737,211.759039 576.110392,207.004023 576.110392,207.004023 L579.352816,221.096007 Z" id="Fill-98" fill="#E8E8E8"></path>
                    <path d="M566.954027,252.913669 C559.829561,260.244582 550.417877,269.478134 550.417877,269.478134 L546.73743,262.494403 C546.73743,262.494403 555.097859,252.696284 560.765768,246.157874 C562.503083,247.009471 565.691677,249.041908 566.954027,252.913669" id="Fill-100" fill="#EEA886"></path>
                    <path d="M548.157468,348.735468 L547.743721,351.955076 C547.743721,351.955076 552.317101,353.568573 557.35489,351.810505 L557.458327,348.949686 L548.157468,348.735468 Z" id="Fill-102" fill="#EEA886"></path>
                    <path d="M613.066214,268.057328 C613.330083,268.993347 564.635673,268.057328 564.635673,268.057328 C564.635673,268.057328 578.105665,258.254989 578.978544,255.636881 C579.852478,253.018773 575.548245,237.305904 574.987787,232.195265 C574.539209,228.10401 573.414071,209.80047 576.109758,207.005078 C578.928936,204.081999 589.079454,201.019626 589.079454,201.019626 L603.882512,201.569418 C603.882512,201.569418 606.32383,202.07911 608.070643,202.889552 C609.816401,203.701049 619.802265,207.256231 621.423477,212.243404 C623.044689,217.232689 611.459778,233.268468 611.459778,233.268468 C611.459778,233.268468 611.437613,233.990268 611.402783,235.171107 C611.358453,236.74556 611.290902,239.139952 611.23074,241.736954 C611.15369,245.099023 611.08614,248.800886 611.08614,251.50447 C611.08614,257.865597 612.805511,267.12342 613.066214,268.057328" id="Fill-104" fill="#E8E8E8"></path>
                    <path d="M613.068325,268.059333 C613.068325,268.059333 619.69144,277.785694 619.784322,284.424354 C619.877204,291.06407 608.030535,313.303741 606.238336,316.485359 C600.848017,326.049209 586.067124,346.679604 586.067124,346.679604 C586.067124,346.679604 583.519204,346.614178 575.569354,343.528588 C575.569354,343.528588 585.402174,316.277473 586.647636,313.449367 C591.933463,301.451025 594.883519,292.940328 593.108208,290.882565 C591.330785,288.824802 586.484037,286.761762 585.081309,285.545044 C583.678581,284.330436 559.235855,290.163931 556.674214,290.827691 C550.042655,292.546715 553.065539,304.084962 554.532652,309.257862 C556.98769,317.909965 559.133474,349.160528 559.133474,349.160528 C559.133474,349.160528 554.410217,351.17397 546.496253,349.472886 C546.496253,349.472886 530.959639,293.046909 530.461454,287.43502 C529.964325,281.824186 529.717343,272.570583 568.004754,265.537254 L613.068325,268.059333 Z" id="Fill-106" fill="#303669"></path>
                    <path d="M593.142089,168.868712 C593.142089,168.868712 580.293773,165.972014 583.229053,182.136536 C586.164333,198.303167 589.254769,199.572649 597.004077,196.227464 C604.757608,192.88228 604.063104,182.524872 604.45152,177.446946 C604.840991,172.366909 597.24156,169.045996 593.142089,168.868712" id="Fill-108" fill="#EEA886"></path>
                    <path d="M589.742716,205.169131 C589.742716,205.169131 595.433845,211.19996 604.424394,205.718923 C604.424394,205.718923 602.413711,192.647379 603.47341,186.283087 C604.532053,179.915629 591.740733,196.145576 591.740733,196.145576 C591.907498,196.234218 592.018323,196.84205 592.04471,197.707366 C592.06793,198.438663 592.028878,199.355687 591.91172,200.296981 C591.647851,202.412784 590.989233,204.648887 589.742716,205.169131" id="Fill-110" fill="#EEA886"></path>
                    <path d="M603.825622,185.741631 C603.825622,185.741631 603.495258,180.647876 601.634453,180.488531 C599.773648,180.330242 599.488669,182.380618 599.488669,182.380618 L597.608865,182.735186 C597.608865,182.735186 598.203099,178.271423 596.344405,177.492639 C594.484655,176.711744 584.306695,179.949292 582.816362,178.638655 C581.322863,177.329073 582.02581,168.272805 584.723608,167.033926 C587.41824,165.795047 594.869904,163.018649 600.325662,166.712071 C600.325662,166.712071 604.581343,166.226649 605.210407,169.659421 C605.842638,173.092192 604.982424,183.188949 603.825622,185.741631" id="Fill-112" fill="#3A3F47"></path>
                    <path d="M591.911298,200.29677 C601.187881,197.437007 601.886606,191.851499 601.897161,191.764968 C598.841556,197.012791 592.044288,197.707154 592.044288,197.707154 C592.067508,198.438452 592.028455,199.355476 591.911298,200.29677" id="Fill-114" fill="#A77860"></path>
                    <path d="M608.222737,202.960782 C608.222737,202.960782 601.428635,216.481869 590.452735,215.609166 C579.47789,214.735408 588.58243,201.144674 589.07956,201.019098 C589.629463,200.880858 600.337272,198.214208 608.222737,202.960782" id="Fill-116" fill="#EEA886"></path>
                    <path d="M559.064762,267.37299 C559.064762,267.37299 592.6933,271.518064 613.068219,268.058911 L574.139078,263.195203 C574.139078,263.195203 573.907929,264.187151 559.064762,267.37299" id="Fill-118" fill="#E8E8E8"></path>
                    <path d="M584.217929,261.663911 L581.713283,262.933392 C581.713283,262.933392 582.284296,266.911734 583.65536,268.116845 L586.46715,267.400321 C586.46715,267.400321 585.880305,263.036808 584.217929,261.663911" id="Fill-120" fill="#EEA886"></path>
                    <path d="M623.131343,253.516541 C622.629992,254.096935 616.019543,256.755143 608.549935,259.631791 L608.54888,259.632846 C598.346644,263.562646 586.836672,267.280338 586.836672,267.280338 L584.218035,261.664227 C584.218035,261.664227 596.269466,255.116319 604.414578,250.523814 C608.26179,248.355248 611.235067,246.622506 611.657258,246.222562 C612.967104,244.975241 613.305912,242.976572 612.343318,239.488927 C611.379668,236.001283 609.161056,219.972891 608.911964,218.101909 C608.662871,216.233038 609.534695,211.243754 614.212567,210.994712 C618.890439,210.745669 621.270538,212.066859 621.270538,212.066859 C621.270538,212.066859 622.445284,212.554391 623.318163,223.901635 C624.191042,235.24888 624.314533,252.145754 623.131343,253.516541" id="Fill-122" fill="#E8E8E8"></path>
                    <path d="M611.402572,235.171002 L611.402572,235.171002 C611.358242,236.745454 611.291747,239.139846 611.230529,241.736849 C606.666648,230.550004 609.304284,221.621423 609.348614,221.471575 C608.855707,224.507567 611.367741,235.022209 611.402572,235.171002" id="Fill-124" fill="#B0B0B0"></path>
                    <path d="M576.161688,238.544994 L576.161688,238.544994 C575.582231,241.359381 575.062937,243.588097 574.73785,244.288792 C573.179967,236.745771 574.582695,227.088002 574.582695,227.088002 C574.794846,231.700558 576.161688,238.544994 576.161688,238.544994" id="Fill-126" fill="#B0B0B0"></path>
                    <path d="M608.549513,259.631685 L608.548457,259.63274 C598.346221,263.56254 586.466833,267.399477 586.466833,267.399477 L584.217613,261.664122 C584.217613,261.664122 596.269044,255.116214 604.414156,250.523709 C604.414156,250.523709 607.377934,251.967309 608.549513,259.631685" id="Fill-128" fill="#EEA886"></path>
                    <polygon id="Fill-130" fill="#444C94" points="583.492289 267.733679 535.693979 267.029818 559.825339 279.279313"></polygon>
                    <polygon id="Fill-132" fill="#303669" points="559.825444 279.279735 583.492395 270.114775 583.492395 267.734101 557.956195 276.942327"></polygon>
                    <path d="M582.253265,263.020029 C582.253265,263.020029 579.267322,262.555714 577.204921,262.074514 C575.606929,261.703061 571.636227,262.214864 570.62508,263.239524 C569.613934,264.26524 566.396841,271.404095 565.787831,271.838864 C565.179877,272.275743 566.100252,273.284574 567.168395,272.776993 C567.168395,272.776993 568.149988,275.901627 570.570195,274.732395 C572.991459,273.562108 574.63378,271.008372 575.902463,270.559885 C577.17009,270.110343 584.554204,267.840472 584.554204,267.840472 C584.554204,267.840472 584.155234,262.259185 582.253265,263.020029" id="Fill-134" fill="#EEA886"></path>
                    <path d="M571.354309,262.771726 C571.354309,262.771726 569.435453,263.698247 568.936212,264.110855 C568.434861,264.523463 566.404124,266.043042 565.913327,266.399721 C565.422531,266.7564 566.655327,267.772618 570.283,266.202387 C573.911729,264.632155 571.354309,262.771726 571.354309,262.771726" id="Fill-136" fill="#EEA886"></path>
                    <polygon id="Fill-138" fill="#303669" points="559.825444 279.279735 545.610286 240.470322 499.776218 241.218504 513.324315 276.983483"></polygon>
                    <path d="M530.944123,257.639665 C532.341574,260.435057 531.919384,263.479491 529.999472,264.439781 C528.080616,265.40007 525.390206,263.911094 523.990644,261.115702 C522.593193,258.321365 523.015384,255.276931 524.935296,254.316641 C526.854152,253.355296 529.544562,254.844273 530.944123,257.639665" id="Fill-140" fill="#518AFA"></path>
                    <path d="M599.527511,180.223132 C599.695331,178.796417 602.514509,178.273006 602.742492,180.412024 C602.96942,182.549988 601.462199,186.303559 600.389835,185.934217 C599.321693,185.564874 599.29425,182.189088 599.527511,180.223132" id="Fill-142" fill="#EEA886"></path>
                    <path d="M316.858653,334.845989 C316.533566,337.11797 302.879921,346.678654 300.191623,348.588681 C298.034229,350.123033 296.157591,350.825839 292.895114,352.050999 L292.893003,352.050999 C285.479335,353.999015 238.966596,367.876781 238.966596,367.876781 C238.843105,367.405078 238.777665,366.994581 238.504297,366.462728 C236.768038,367.154981 234.980061,367.604523 233.845424,367.959091 C232.114442,368.499386 218.368971,368.932044 215.554015,369.473394 C212.740115,370.013689 207.112314,370.879004 204.839873,368.715715 C202.566377,366.55137 206.247879,361.89977 209.385811,360.708378 C212.523742,359.518041 223.996772,359.19302 226.05284,358.976691 C228.109964,358.760362 230.81515,358.002683 232.114442,358.435341 C232.523967,358.57147 234.338331,358.039618 236.62766,357.24817 C236.571719,356.40607 236.557998,355.875273 236.557998,355.875273 L248.770917,352.354915 L246.509031,330.734683 C246.509031,330.734683 251.8223,310.715286 273.052155,325.987054 C273.052155,325.987054 277.788078,327.380002 279.411401,327.811604 C279.525392,327.842207 279.70799,327.846428 279.954971,327.828489 C283.193173,327.583668 297.110687,323.376333 302.138977,323.376333 C307.551461,323.376333 309.283498,323.050257 311.230852,324.02532 C313.179261,324.998273 317.184795,332.572952 316.858653,334.845989" id="Fill-144" fill="#37BAFF"></path>
                    <path d="M295.111614,368.715398 C292.838118,370.879743 287.210317,370.013372 284.397472,369.474133 C281.583572,368.931727 267.837045,368.499069 266.106064,367.958775 C264.372971,367.417425 261.127381,366.660801 258.853884,365.143333 C258.671287,365.021977 258.252263,364.840472 257.639031,364.61148 C257.639031,364.61148 257.637976,364.61148 257.63692,364.613591 L254.199233,367.092404 L206.408311,351.882896 C203.544803,351.09778 201.272362,349.904277 199.759865,348.589419 C197.269995,346.425075 183.416866,337.118709 183.091779,334.845672 C182.767748,332.572635 186.77117,324.997956 188.718525,324.025004 C190.66799,323.050996 192.400027,323.376017 197.810399,323.376017 C203.221828,323.376017 218.916764,328.245001 220.540086,327.811288 C221.277865,327.615009 222.806195,326.836225 224.254308,326.046888 C225.990567,325.098206 227.610724,324.133696 227.610724,324.133696 C250.854428,313.759404 253.442456,330.734367 253.442456,330.734367 L252.066115,351.690838 C252.066115,351.690838 254.00397,352.651127 256.523392,353.848851 L268.043919,357.103283 L266.536698,358.191259 C267.187927,358.402312 267.64917,358.498341 267.837045,358.435025 C269.136337,358.003422 271.841523,358.760046 273.897591,358.976375 C275.954715,359.193759 287.42669,359.517725 290.565677,360.708062 C293.704664,361.899454 297.384055,366.551054 295.111614,368.715398" id="Fill-146" fill="#37BAFF"></path>
                    <path d="M224.254519,326.04731 C225.857788,326.158113 236.688033,332.430597 239.258118,333.930126 C235.352855,331.890302 220.539242,327.81171 220.539242,327.81171 C221.278076,327.614376 222.806406,326.836647 224.254519,326.04731" id="Fill-148" fill="#5478B3"></path>
                    <path d="M279.95571,327.828067 C279.95571,327.828067 261.295941,332.35409 257.882529,334.250398 C258.036629,334.137485 267.715349,326.784411 272.796413,325.804072 C272.796413,325.804072 277.787761,327.37958 279.411084,327.811182 C279.526131,327.84284 279.708729,327.847061 279.954655,327.828067 L279.95571,327.828067 Z" id="Fill-150" fill="#5478B3"></path>
                    <path d="M295.111614,368.715398 C292.838118,370.879743 287.210317,370.013372 284.397472,369.474133 C281.583572,368.931727 267.837045,368.499069 266.106064,367.958775 C265.606823,367.802596 264.985148,367.629533 264.295921,367.424812 L264.294866,367.424812 C262.587105,366.920396 260.472985,366.223922 258.853884,365.143333 C258.671287,365.021977 258.252263,364.840472 257.639031,364.61148 L266.287606,358.370654 L266.536698,358.191259 C267.187927,358.402312 267.64917,358.498341 267.837045,358.435025 C269.136337,358.003422 271.841523,358.760046 273.897591,358.976375 C275.954715,359.193759 287.42669,359.517725 290.565677,360.708062 C293.704664,361.899454 297.384055,366.551054 295.111614,368.715398" id="Fill-152" fill="#EEA886"></path>
                    <path d="M295.111614,368.715398 C292.838118,370.879743 287.210317,370.013372 284.397472,369.474133 C281.583572,368.931727 267.837045,368.499069 266.106064,367.958775 C265.606823,367.802596 264.985148,367.629533 264.295921,367.424812 L264.294866,367.424812 C264.293811,367.422701 264.292755,367.422701 264.292755,367.422701 C264.292755,367.422701 268.076638,363.680738 266.287606,358.370654 L266.536698,358.191259 C267.187927,358.402312 267.64917,358.498341 267.837045,358.435025 C269.136337,358.003422 271.841523,358.760046 273.897591,358.976375 C275.954715,359.193759 287.42669,359.517725 290.565677,360.708062 C293.704664,361.899454 297.384055,366.551054 295.111614,368.715398" id="Fill-154" fill="#FFFFFF"></path>
                    <path d="M228.998992,330.822798 C229.023268,330.880837 229.019046,330.924103 228.981049,330.950485 C228.765732,331.11194 228.801618,331.043348 228.998992,330.822798" id="Fill-156" fill="#E55353"></path>
                    <path d="M275.583293,314.231212 C274.521484,315.437378 270.324909,318.104028 266.548414,320.298975 C266.26238,317.682978 265.827523,313.565341 265.781083,312.085862 C265.70931,309.849759 266.645518,303.429538 267.800209,300.976051 C268.955956,298.52362 269.749674,291.814257 269.749674,291.814257 C269.749674,291.814257 279.30807,304.79927 280.824789,306.170057 C282.339398,307.540843 279.168747,310.161062 275.583293,314.231212 M219.754917,315.781393 C217.048676,312.535404 213.324954,310.570504 214.261162,309.127959 C215.200536,307.685414 223.13772,293.978601 223.13772,293.978601 C223.13772,293.978601 227.249856,302.995825 228.405603,307.685414 C229.560294,312.373949 229.469523,314.521409 228.981893,315.980838 C228.544926,317.288309 228.194508,318.177896 227.800815,322.074983 C224.56578,319.864207 220.994047,317.269314 219.754917,315.781393 M291.551597,305.52107 C291.370055,305.155949 281.510849,289.649912 278.840494,282.580704 C276.170138,275.510441 269.749674,272.263396 266.719401,271.254564 C265.637538,270.89472 263.711293,270.266838 261.678445,269.609409 C258.018053,268.426459 254.019908,267.142204 254.019908,267.142204 L241.392186,267.142204 C241.392186,267.142204 237.017236,268.607964 232.372084,270.236236 C232.368917,270.238346 232.367862,270.238346 232.367862,270.238346 C228.086849,271.739986 223.578909,273.378809 222.054801,274.141764 C218.879927,275.72677 213.541327,287.052909 212.458408,288.351938 C211.376545,289.649912 203.053057,305.073638 201.85298,311.003162 C200.919939,315.60833 228.252559,329.095649 228.998781,330.823114 C229.865327,329.862825 233.845529,326.046993 233.845529,326.046993 C233.845529,326.046993 232.570514,325.246049 230.775148,324.064154 C238.096989,324.400783 255.989427,323.767625 258.556346,323.897422 C259.072474,323.922749 259.633987,323.907975 260.210277,323.861543 C260.208166,323.862599 260.207111,323.863654 260.207111,323.863654 C261.000829,324.441938 266.124112,328.965851 266.124112,328.965851 C266.124112,328.965851 278.751834,323.724359 284.559065,317.858151 C292.805504,309.525793 292.459307,307.361449 291.551597,305.52107" id="Fill-158" fill="url(#linearGradient-27)"></path>
                    <path d="M249.210734,232.444202 C249.210734,232.444202 259.085773,233.998604 257.582774,249.445546 C256.07872,264.893544 247.36365,263.627228 246.779972,263.611399 C246.198404,263.59557 238.031127,263.894209 237.39573,245.033491 C237.39573,245.033491 237.116029,231.087133 249.210734,232.444202" id="Fill-160" fill="#EEA886"></path>
                    <path d="M257.734974,245.082666 C257.734974,245.082666 258.815782,243.928208 259.212641,245.09744 C259.6095,246.265616 257.73814,251.479672 257.669534,251.724493 C257.669534,251.724493 257.473216,252.178256 257.213568,251.928158 C256.953921,251.678061 257.734974,245.082666 257.734974,245.082666" id="Fill-162" fill="#EEA886"></path>
                    <path d="M237.660338,244.887865 C237.660338,244.887865 236.601695,243.712302 236.182671,244.873091 C235.763647,246.034936 237.517849,251.282759 237.595954,251.528636 C237.595954,251.528636 237.78594,251.985565 238.049809,251.741799 C238.313678,251.496978 237.660338,244.887865 237.660338,244.887865" id="Fill-164" fill="#EEA886"></path>
                    <path d="M257.729802,247.452893 L256.316519,249.340759 C256.316519,249.340759 256.355572,245.198851 256.1297,244.549864 C255.902772,243.900877 255.554465,241.915927 255.36659,241.448446 C255.176604,240.979909 246.886892,238.656219 239.563995,242.125924 C239.563995,242.125924 239.885916,245.104932 239.182968,245.368748 C238.482132,245.634674 238.826217,250.220848 238.826217,250.220848 L237.663082,248.910211 C237.663082,248.910211 235.884604,237.025838 236.323683,235.786959 C236.763816,234.54808 238.163378,227.102143 253.185976,231.52264 C253.185976,231.52264 257.87018,230.530693 258.809554,233.762964 C259.749984,236.997346 257.729802,247.452893 257.729802,247.452893" id="Fill-166" fill="#434343"></path>
                    <path d="M234.681467,346.229218 C234.681467,346.229218 219.565987,337.171894 212.962926,335.748344 C206.724004,334.400773 204.448397,332.067586 204.448397,332.067586 C204.448397,332.067586 214.370932,332.067586 220.972937,336.757176 C225.455546,339.940905 234.681467,346.229218 234.681467,346.229218" id="Fill-168" fill="#206EDE"></path>
                    <path d="M248.111033,352.544229 C248.111033,352.544229 274.402954,338.741387 285.138205,335.748661 C291.285301,334.032803 293.651679,332.067903 293.651679,332.067903 C293.651679,332.067903 277.397341,333.656074 267.512803,339.606703 C262.801156,342.44325 248.111033,352.544229 248.111033,352.544229" id="Fill-170" fill="#206EDE"></path>
                    <path d="M238.504508,366.462623 C236.767194,367.154875 234.980272,367.604417 233.845635,367.958986 C232.114653,368.499281 218.369182,368.931938 215.554226,369.474344 C212.740326,370.013583 207.112525,370.879954 204.840084,368.715609 C202.566588,366.551265 206.247034,361.899665 209.386022,360.708273 C212.523953,359.517936 223.996983,359.192915 226.053051,358.976586 C228.10912,358.760257 230.815362,358.002578 232.114653,358.435236 C232.524178,358.571365 234.338542,358.040567 236.627871,357.24912 C236.697532,358.622017 238.504508,366.462623 238.504508,366.462623" id="Fill-172" fill="#EEA886"></path>
                    <path d="M248.111033,365.153885 L273.957543,357.507448 L268.846925,355.946714 C268.846925,355.946714 248.19125,363.432751 248.111033,365.153885" id="Fill-174" fill="#FAA146"></path>
                    <polygon id="Fill-176" fill="#B57433" points="248.111033 365.153885 260.206794 361.465741 251.821033 366.334725"></polygon>
                    <path d="M239.802217,334.250293 C239.778996,334.235519 239.584788,334.122606 239.257591,333.929493 C239.475019,334.043461 239.657616,334.150043 239.802217,334.250293" id="Fill-178" fill="#525252"></path>
                    <path d="M233.845529,367.958986 C232.114548,368.499281 218.369077,368.931938 215.554121,369.474344 C212.74022,370.013583 207.11242,370.879954 204.839979,368.715609 C202.566482,366.551265 206.247984,361.899665 209.385916,360.708273 C212.523848,359.517936 223.996878,359.192915 226.052946,358.976586 C228.109014,358.760257 230.815256,358.002578 232.114548,358.435236 C232.114548,358.435236 228.644141,363.737933 233.845529,367.958986" id="Fill-180" fill="#FFFFFF"></path>
                    <path d="M225.301763,332.067692 L221.31945,309.416468 L272.81615,308.227187 L269.498787,330.51751 C269.498787,330.51751 253.061851,336.531455 247.482603,340.042316 C247.482603,340.042316 233.382492,334.249976 225.301763,332.067692" id="Fill-182" fill="#525252"></path>
                    <path d="M250.51467,323.077272 C250.51467,324.948253 249.221711,326.467832 247.627942,326.467832 C246.035228,326.467832 244.742269,324.948253 244.742269,323.077272 C244.742269,321.205235 246.035228,319.686711 247.627942,319.686711 C249.221711,319.686711 250.51467,321.205235 250.51467,323.077272" id="Fill-184" fill="#6E6E6E"></path>
                    <path d="M254.149098,267.184414 C254.144876,267.169641 254.140654,267.156978 254.135377,267.143259 C253.518978,265.767196 253.820845,259.062054 253.820845,259.062054 C253.820845,259.062054 241.242731,255.861441 241.602648,258.308596 C241.96151,260.754696 240.518674,267.436622 240.518674,267.436622 L234.067601,269.644233 C234.067601,269.644233 240.940865,288.098675 248.843217,285.718001 C256.743459,283.338383 259.726236,268.978362 259.726236,268.978362 L254.149098,267.184414 Z" id="Fill-186" fill="#EEA886"></path>
                    <path d="M241.837914,261.085732 C241.837914,261.085732 243.809544,263.642635 247.326392,263.642635 C249.639997,263.642635 251.218989,263.072793 253.523095,260.827193 C253.523095,260.827193 252.606941,265.015532 247.342224,265.411256 C247.342224,265.411256 243.578395,265.954716 241.837914,261.085732" id="Fill-188" fill="#A77860"></path>
                    <path d="M458.411038,121.827085 C458.411038,121.827085 465.720213,121.062019 468.354682,128.119619 C470.98704,135.176164 473.468466,137.487191 473.77772,141.195385 C475.031626,156.189619 482.036824,152.798004 480.06625,161.440609 C478.095675,170.084269 476.731999,171.393851 476.731999,171.393851 L459.988975,168.109872 L443.024301,168.164746 C443.024301,168.164746 449.661137,164.851219 448.185581,157.794675 C446.706858,150.737075 443.024301,139.171391 445.104645,131.291741 C447.182878,123.414201 454.04242,122.429641 458.411038,121.827085" id="Fill-190" fill="#464240"></path>
                    <path d="M453.78615,353.526363 C453.78615,353.526363 448.53621,360.734865 449.281377,361.897765 C450.028654,363.058555 455.758836,363.224231 459.242964,361.897765 C462.730259,360.569189 462.813641,351.977236 464.390523,348.286981 C465.051251,346.741021 463.636913,342.180173 461.651562,341.849876 C459.664099,341.518523 457.333607,342.560068 457.333607,342.560068 C457.333607,342.560068 459.368566,347.812113 453.78615,353.526363" id="Fill-192" fill="#000000"></path>
                    <path d="M457.333924,342.56049 C457.333924,342.56049 456.919121,345.963714 456.256282,348.370769 C455.592387,350.776769 452.023821,356.253585 452.188476,356.917345 C452.354185,357.581106 456.836794,358.182606 458.662769,356.472024 C460.487688,354.760387 461.89886,349.803816 462.065625,346.803703 C462.233446,343.805701 461.651878,341.849243 461.651878,341.849243 C461.651878,341.849243 459.077571,340.734885 457.333924,342.56049" id="Fill-194" fill="#EEA886"></path>
                    <polygon id="Fill-196" fill="#000000" points="464.390418 348.287192 464.390418 355.961066 463.394048 355.961066 463.394048 350.029432"></polygon>
                    <path d="M467.523811,353.526363 C467.523811,353.526363 462.274926,360.734865 463.020092,361.897765 C463.76737,363.058555 469.496496,363.224231 472.98168,361.897765 C476.468974,360.569189 476.551302,351.977236 478.128183,348.286981 C478.787856,346.741021 477.374573,342.180173 475.388166,341.849876 C473.402815,341.518523 471.072323,342.560068 471.072323,342.560068 C471.072323,342.560068 473.105171,347.812113 467.523811,353.526363" id="Fill-198" fill="#000000"></path>
                    <path d="M471.07264,342.56049 C471.07264,342.56049 470.657837,345.963714 469.994998,348.370769 C469.331103,350.776769 465.760426,356.253585 465.926136,356.917345 C466.092901,357.581106 470.57551,358.182606 472.400429,356.472024 C474.225348,354.760387 475.637576,349.803816 475.804341,346.803703 C475.971106,343.805701 475.388483,341.849243 475.388483,341.849243 C475.388483,341.849243 472.814176,340.734885 471.07264,342.56049" id="Fill-200" fill="#EEA886"></path>
                    <polygon id="Fill-202" fill="#000000" points="478.128078 348.287192 478.128078 355.961066 477.132764 355.961066 477.132764 350.029432"></polygon>
                    <path d="M444.136351,223.080852 C444.136351,223.080852 440.164593,244.956457 439.092228,250.429052 C438.018809,255.903757 435.013867,282.406691 434.693002,286.91372 C434.368971,291.421804 444.483603,313.09902 445.116888,314.594328 C455.699096,339.62517 456.920283,345.289823 456.920283,345.289823 C456.920283,345.289823 460.394911,347.465775 462.001347,344.868773 C462.488977,344.077325 455.486945,315.375223 454.33331,307.411152 C453.260945,300.005315 450.468154,288.570483 451.220709,285.970315 C451.972209,283.371202 458.842305,247.553459 460.129987,246.05182 C461.418723,244.549125 463.350246,246.909749 464.101745,250.236994 C464.853244,253.563183 466.46179,282.32227 467.426496,285.970315 C468.393312,289.618359 467.642869,301.959662 468.179051,308.182549 C468.716288,314.407546 470.951787,343.458941 470.951787,343.458941 C470.951787,343.458941 475.275019,344.232449 475.703543,343.540196 C476.133122,342.848999 479.876897,311.273415 479.985611,303.870744 C480.092214,296.464907 480.207261,286.254181 480.414135,283.051457 C482.402652,252.368625 486.159093,248.355459 479.594029,226.270912 C463.528621,172.236162 444.136351,223.080852 444.136351,223.080852" id="Fill-204" fill="#EEA886"></path>
                    <path d="M444.136351,223.080852 C444.136351,223.080852 440.164593,244.956457 439.092228,250.429052 C438.018809,255.903757 435.013867,282.406691 434.693002,286.91372 C434.368971,291.421804 444.136351,313.097965 444.351668,314.707241 C444.56593,316.317573 452.609716,339.357133 452.609716,339.357133 C452.609716,339.357133 460.734775,339.218894 462.949164,337.113644 C463.39352,336.690483 455.486945,315.375223 454.33331,307.411152 C453.260945,300.005315 450.468154,288.570483 451.220709,285.970315 C451.972209,283.371202 458.842305,247.553459 460.129987,246.05182 C461.418723,244.549125 463.350246,246.909749 464.101745,250.236994 C464.853244,253.563183 466.46179,282.32227 467.426496,285.970315 C468.393312,289.618359 467.642869,301.959662 468.179051,308.182549 C468.716288,314.407546 467.584817,336.521641 467.584817,336.521641 C467.584817,336.521641 478.228243,337.07882 478.655711,336.387623 C479.08529,335.697481 479.876897,311.273415 479.985611,303.870744 C480.092214,296.464907 480.207261,286.254181 480.414135,283.051457 C482.402652,252.368625 486.159093,248.355459 479.594029,226.270912 C463.528621,172.236162 444.136351,223.080852 444.136351,223.080852" id="Fill-206" fill="#2034AE"></path>
                    <path d="M481.188327,230.442895 C481.807891,230.192798 476.838708,213.764461 475.852893,208.854321 C474.965237,204.426437 471.937075,200.370006 474.89452,192.825929 C476.587504,188.505682 476.473513,183.399263 476.473513,183.399263 C476.473513,183.399263 480.997285,193.376777 481.426864,195.952674 C481.856443,198.528571 465.791035,193.842148 465.569385,194.198827 C465.145083,194.877361 464.676452,199.22399 464.676452,200.726684 C464.676452,201.968729 487.99615,207.477203 490.756221,202.595556 C491.54044,201.21105 486.474153,174.714448 483.206398,171.185648 C477.840355,165.390142 463.744466,160.453621 463.744466,160.453621 C463.744466,160.453621 459.880366,158.380029 453.080987,160.525379 C446.284773,162.67284 436.768597,169.252406 435.120998,170.970374 C433.476566,172.688342 426.892503,198.560229 426.317268,201.911745 C425.77792,205.062761 425.990071,211.694034 433.187365,210.846658 L452.614466,206.398724 L451.408056,200.477642 L436.846702,201.62999 C433.87448,202.137571 435.299374,199.528961 435.679345,198.079029 C436.048762,196.65759 439.703877,183.490016 439.703877,183.490016 C439.491726,187.138061 442.245465,199.116353 443.676691,203.266703 C445.106861,207.415998 441.942543,229.61979 441.728281,232.050061 C441.728281,232.050061 453.424017,241.655066 481.188327,230.442895" id="Fill-208" fill="#39BAFE"></path>
                    <path d="M466.915751,161.66844 C466.915751,161.66844 462.122832,171.556256 458.120465,174.454009 C458.120465,174.454009 450.914727,163.658667 451.282032,161.168246 C451.282032,161.168246 459.264601,157.629948 466.915751,161.66844" id="Fill-210" fill="#EEA886"></path>
                    <path d="M467.087793,195.007158 C467.087793,195.007158 464.867071,194.112295 464.278115,193.307129 C463.689159,192.500908 461.71964,192.020763 460.263082,192.453421 C458.806525,192.88819 459.612909,199.1459 459.612909,199.1459 L467.299944,200.141013 L467.087793,195.007158 Z" id="Fill-212" fill="#EEA886"></path>
                    <path d="M453.172813,199.786762 C453.172813,199.786762 453.911647,195.742993 453.734327,194.996922 C453.555951,194.251906 455.047339,193.502669 455.255268,195.347269 C455.463197,197.191869 455.572967,198.364267 455.572967,198.364267 L453.172813,199.786762 Z" id="Fill-214" fill="#EEA886"></path>
                    <path d="M456.369218,202.593867 L461.965355,202.364875 C462.680968,202.336383 463.24987,201.752822 463.258314,201.035243 L463.408191,188.784693 C463.419801,188.017517 462.78546,187.398078 462.018129,187.422349 L455.317964,187.640788 C454.548521,187.66717 453.957454,188.326709 454.016561,189.091775 L454.970712,201.350767 C455.025597,202.074678 455.644106,202.622359 456.369218,202.593867" id="Fill-216" fill="#51578C"></path>
                    <path d="M453.049217,200.115476 C453.049217,200.115476 452.944725,198.966294 455.151726,197.915252 C458.081729,196.518084 461.990158,195.0977 462.65722,195.464931 C463.618759,195.992563 463.122685,196.72386 461.271379,197.333802 C459.421129,197.943744 458.810008,198.138968 458.810008,198.138968 C458.810008,198.138968 462.431348,197.793897 463.244065,198.226555 C464.056782,198.661323 464.102167,199.660658 463.507934,199.826334 C462.914756,199.988844 461.515194,200.089094 461.515194,200.089094 C461.515194,200.089094 463.050912,200.147134 463.205012,200.763408 C463.317948,201.221392 463.374944,201.8746 461.920497,202.144747 C461.920497,202.144747 462.907368,203.239055 461.427589,203.940805 C459.948867,204.6415 457.271123,205.282044 455.926446,205.501539 C453.129433,205.960579 446.814517,205.619729 446.814517,205.619729 L449.407823,201.231944 C449.407823,201.231944 450.851715,201.343802 451.843863,201.007173 C453.185373,200.549189 453.049217,200.115476 453.049217,200.115476" id="Fill-218" fill="#EEA886"></path>
                    <polygon id="Fill-220" fill="#EB4747" points="451.408267 200.47817 452.614677 206.398196 440.234993 209.233688 439.756862 201.399415"></polygon>
                    <path d="M465.569596,194.199143 C465.569596,194.199143 464.54895,196.387759 464.676663,200.727001 C464.676663,200.727001 472.354199,203.52978 478.316586,204.180877 L478.316586,196.650519 L465.569596,194.199143 Z" id="Fill-222" fill="#EB4747"></path>
                    <path d="M452.614255,206.398618 L443.936127,211.223282 C443.996289,210.216561 444.039564,209.254161 444.060673,208.358242 L452.614255,206.398618 Z" id="Fill-224" fill="#B33636"></path>
                    <path d="M475.42648,207.040641 C468.463502,204.274796 465.677044,201.780154 464.910768,200.988706 C464.747169,200.818809 464.676452,200.727001 464.676452,200.727001 L474.564156,203.60998 L474.565211,203.60998 C474.811137,204.806648 475.135169,205.930504 475.42648,207.040641" id="Fill-226" fill="#B33636"></path>
                    <path d="M459.373738,125.95538 C459.373738,125.95538 469.054568,127.352549 467.638119,141.637646 C466.220614,155.926964 457.677587,154.792557 457.106574,154.779893 C456.534506,154.769341 448.533994,155.078533 447.842657,137.643475 C447.842657,137.643475 447.521792,124.751325 459.373738,125.95538" id="Fill-228" fill="#EEA886"></path>
                    <path d="M463.675016,152.246312 C463.675016,152.246312 463.077616,159.678531 464.507787,161.904081 C465.940068,164.131741 463.284489,167.154015 457.809733,166.118802 C452.338142,165.086754 452.657952,161.985336 452.657952,161.985336 C452.657952,161.985336 454.189448,157.397052 453.740871,153.725791 C453.292293,150.055586 463.675016,152.246312 463.675016,152.246312" id="Fill-230" fill="#EEA886"></path>
                    <path d="M458.266754,131.133768 C458.266754,131.133768 462.790526,135.887728 464.89198,138.294783 C466.991323,140.701839 467.233027,145.352383 467.233027,145.352383 C467.233027,145.352383 470.774151,141.030026 469.292262,135.99642 C467.813539,130.96387 464.310413,121.172083 455.446521,124.178528 C446.581573,127.188139 446.254376,140.428526 447.29402,146.992262 C447.29402,146.992262 451.273166,132.500333 458.266754,131.133768" id="Fill-232" fill="#464240"></path>
                    <path d="M454.453001,154.133228 C454.453001,154.133228 458.576747,156.082299 462.590725,153.202486 C462.590725,153.202486 461.476141,155.506126 458.520807,155.832202 C455.567584,156.160389 454.453001,154.133228 454.453001,154.133228" id="Fill-234" fill="#A77860"></path>
                    <path d="M453.047106,156.724954 C453.047106,156.724954 439.729103,168.572394 443.184733,175.963457 C446.133735,182.27182 456.594562,178.403226 454.869914,171.793057 C453.143154,165.183944 453.047106,156.724954 453.047106,156.724954" id="Fill-236" fill="#464240"></path>
                    <path d="M456.674251,190.002889 C456.674251,190.462984 456.300612,190.835492 455.842535,190.835492 C455.381292,190.835492 455.008709,190.462984 455.008709,190.002889 C455.008709,189.542794 455.381292,189.170287 455.842535,189.170287 C456.300612,189.170287 456.674251,189.542794 456.674251,190.002889" id="Fill-238" fill="#48484D"></path>
                    <polygon id="Fill-240" fill="#5C5049" points="96.4749422 354.557988 86.7571698 289.942114 88.6274743 289.655083 98.3452467 354.269901"></polygon>
                    <polygon id="Fill-242" fill="#5C5049" points="84.6080085 354.557988 74.8902361 289.942114 76.7626515 289.655083 86.4793684 354.269901"></polygon>
                    <polygon id="Fill-244" fill="#5C5049" points="26.1599403 354.557988 24.2885804 354.269901 34.0063528 289.655083 35.8766572 289.942114"></polygon>
                    <path d="M89.7977866,290.601126 L97.4098834,210.528813 C97.4098834,210.528813 84.0971579,208.788684 76.0523158,209.217121 L63.9607767,290.601126 L89.7977866,290.601126 Z" id="Fill-246" fill="#FAB46C"></path>
                    <polygon id="Fill-248" fill="#FAB46C" points="63.9607767 290.601232 89.7977866 290.601232 89.7977866 286.531082 63.9607767 286.531082"></polygon>
                    <path d="M47.057109,287.338463 L43.0178003,211.03344 C43.0178003,211.03344 76.7138885,207.375898 97.4096723,210.529024 L47.057109,287.338463 Z" id="Fill-250" fill="#FAB46C"></path>
                    <path d="M73.9645832,186.32593 C73.9645832,186.32593 79.1680825,171.071046 69.2381593,166.342412 C59.3092916,161.611667 50.8792006,168.449772 49.287542,172.147414 C47.6948279,175.846112 48.115963,182.572359 49.4743613,187.264059 C50.8327596,191.954704 50.63433,199.096725 47.6842731,201.482675 C44.7342162,203.871791 41.0759346,207.83747 41.2564211,215.911288 C41.3683016,220.919567 60.9685007,203.099338 60.9685007,203.099338 L73.9645832,186.32593 Z" id="Fill-251" fill="#FCCCA2"></path>
                    <path d="M60.7165585,350.48119 C60.7165585,350.48119 60.4073038,361.262813 61.9472441,361.90969 C63.4861289,362.558677 69.3144703,358.810382 71.8845556,355.102187 C74.4556964,351.396103 68.6632413,342.766161 67.7133124,338.007979 C67.3153977,336.012477 62.7874034,332.428803 60.5793465,333.454519 C58.3702341,334.4834 56.759577,337.115227 56.759577,337.115227 C56.759577,337.115227 62.3778785,340.964827 60.7165585,350.48119" id="Fill-252" fill="#D4C3BD"></path>
                    <path d="M56.7594714,337.115227 C56.7594714,337.115227 58.6719949,340.793874 59.6546435,343.648361 C60.6383477,346.502848 60.8220006,354.408879 61.4415653,354.957616 C62.0590191,355.506353 66.9437644,353.043369 67.5960489,350.087577 C68.247278,347.130729 66.267204,341.223366 64.3821229,338.116671 C62.4970418,335.011032 60.579241,333.454519 60.579241,333.454519 C60.579241,333.454519 57.2492125,334.10245 56.7594714,337.115227" id="Fill-253" fill="#DE9673"></path>
                    <polygon id="Fill-254" fill="#D4C3BD" points="67.7132068 338.007663 72.9620916 345.664652 71.9667772 346.344242 67.9105809 340.426326"></polygon>
                    <path d="M48.8238711,253.344427 C48.8238711,253.344427 51.39079,257.675227 48.8238711,260.830464 C46.2569522,263.984646 29.0051883,272.649411 29.13079,277.653469 C29.2574472,282.658582 32.417544,290.491801 33.5532367,292.478861 C34.6889294,294.465922 38.8791713,302.711748 41.0566193,307.538522 C43.2330119,312.36424 55.820625,335.452343 58.2819963,340.655846 C60.7423121,345.861459 59.2277033,319.84078 59.2277033,319.84078 L46.6411457,282.936117 L76.0519991,254.289943 C76.0519991,254.289943 72.4908213,246.368082 48.8238711,253.344427" id="Fill-255" fill="#DE9673"></path>
                    <path d="M60.0125556,204.472552 C60.0125556,204.472552 51.8526666,206.281273 48.6134091,208.175471 C45.3741516,210.067557 38.1810791,218.773478 38.1810791,222.516497 C38.1810791,226.259515 69.6385016,229.756657 69.6385016,229.756657 L75.601944,251.52146 C75.601944,251.52146 91.5016424,247.640202 93.3951673,244.422705 C95.2865812,241.206263 87.133025,218.307052 85.9973323,213.480278 C84.862695,208.655615 78.9129738,205.401184 72.2898586,204.472552 C65.663577,203.546031 60.0125556,204.472552 60.0125556,204.472552" id="Fill-256" fill="#2F4563"></path>
                    <path d="M79.3007559,254.059579 C79.3007559,254.059579 78.7329095,257.780437 80.2464629,259.358055 C81.7621272,260.936729 88.7367161,270.132292 85.0425482,279.167455 C81.6513021,287.463934 75.0725169,287.305645 75.0725169,287.305645 L64.8935013,287.305645 C64.8935013,287.305645 67.8477801,302.239729 66.8946848,312.079003 C65.9394785,321.921442 61.4494814,344.394326 61.355544,345.528734 C61.2605511,346.665253 57.0513107,350.215158 55.820625,348.416989 C55.820625,348.416989 55.7066336,334.88535 55.0437943,329.775766 C54.3820105,324.665126 51.5617772,304.226789 50.7089522,301.199239 C49.8582381,298.170634 44.8426137,288.991955 44.8426137,288.045384 C44.8426137,287.099868 39.9420361,272.285029 50.6382353,268.500855 C61.3323235,264.714571 65.1130404,254.138724 79.3007559,254.059579" id="Fill-257" fill="#EEA886"></path>
                    <path d="M50.7523323,358.853226 C50.7523323,358.853226 43.7313024,367.041012 44.5207989,368.513104 C45.3102953,369.986252 52.1983351,370.735489 56.5300108,369.469173 C60.8595755,368.201802 61.784173,357.851781 64.0397263,353.553694 C64.9843778,351.75447 63.717806,346.119365 61.3556495,345.528418 C58.9924376,344.939581 56.0835442,345.973739 56.0835442,345.973739 C56.0835442,345.973739 58.0308984,352.499486 50.7523323,358.853226" id="Fill-258" fill="#E6D3CC"></path>
                    <path d="M56.0833331,345.973633 C56.0833331,345.973633 55.256895,350.036396 54.2235835,352.873999 C53.1934384,355.712657 48.3656888,361.972478 48.5007898,362.789252 C48.6369462,363.60497 53.9839903,364.760483 56.3493132,362.872617 C58.7146361,360.983696 60.8920842,355.144925 61.3807698,351.543312 C61.866289,347.943809 61.3554384,345.528312 61.3554384,345.528312 C61.3554384,345.528312 58.3589405,343.939086 56.0833331,345.973633" id="Fill-259" fill="#EEA886"></path>
                    <polygon id="Fill-260" fill="#E6D3CC" points="64.0396208 353.553166 63.3039536 362.806769 62.1028213 362.71074 62.6717232 355.559222"></polygon>
                    <path d="M85.0429704,279.167455 C81.8406546,287.573682 75.0729391,287.305645 75.0729391,287.305645 L64.8939235,287.305645 C64.8939235,287.305645 60.6466859,280.578342 50.2481312,279.421774 C47.9440259,279.1664 45.3359434,279.183284 42.4059405,279.608555 C42.3711098,279.613832 42.3362791,279.618053 42.3003929,279.624384 C28.4842051,281.670539 31.1524498,286.741079 31.1936134,286.872987 C30.0473659,284.070208 28.8409562,279.611721 29.1301568,277.210997 C30.4558353,266.277416 46.2573744,263.984329 48.8242933,260.830147 C51.3901568,257.675966 48.8242933,253.344111 48.8242933,253.344111 C72.4912435,246.367766 76.0513659,254.289626 76.0513659,254.289626 C77.0888993,254.146111 79.7476447,252.614924 80.8791155,252.607537 C80.8791155,252.607537 82.0633602,255.193987 82.8971866,257.529284 C83.6328538,259.588103 88.5175991,270.045761 85.0429704,279.167455" id="Fill-261" fill="#2F4563"></path>
                    <polygon id="Fill-262" fill="#DED1C5" points="75.2231334 218.969019 78.7241491 251.521777 32.6325445 251.521777 29.1304734 218.969019"></polygon>
                    <polygon id="Fill-263" fill="#DED1C5" points="74.6939175 251.520616 82.3925633 251.520616 82.3925633 248.592261 74.6939175 248.592261"></polygon>
                    <polygon id="Fill-264" fill="#BC8551" points="0.867556188 255.951666 127.824495 255.951666 127.824495 251.521671 0.867556188 251.521671"></polygon>
                    <path d="M65.1136737,168.942897 C65.1136737,168.942897 75.4394006,171.997884 73.9648999,186.326247 C72.4882882,200.65461 65.7448486,199.916981 65.1136737,200.021452 C64.4803878,200.126978 56.4724873,200.65461 53.9435656,183.27126 C51.4146438,165.88791 65.1136737,168.942897 65.1136737,168.942897" id="Fill-265" fill="#EEA886"></path>
                    <path d="M70.0344108,197.386566 C70.0344108,197.386566 69.487674,202.129973 70.4017166,205.080489 C71.3147038,208.031005 58.3724506,208.111205 58.3808945,205.685155 C58.3882828,202.929863 59.704462,200.627279 58.4642771,195.906031 C57.2251477,191.181618 70.0344108,197.386566 70.0344108,197.386566" id="Fill-266" fill="#EEA886"></path>
                    <path d="M62.4471178,175.332199 C62.4471178,175.332199 68.0590865,184.256559 73.9644777,186.32593 C73.9644777,186.32593 77.1889585,171.352801 63.8709556,168.213393 C50.5508418,165.077151 52.6375189,183.339536 53.6317778,188.20852 C53.6317778,188.20852 56.4045147,181.044338 62.4471178,175.332199" id="Fill-267" fill="#FCCCA2"></path>
                    <path d="M59.9959846,197.991548 C59.9959846,197.991548 64.0817343,202.247424 69.3073986,198.434758 C69.3073986,198.434758 68.8757087,201.155227 65.1182122,201.507685 C61.3596603,201.858032 59.9959846,197.991548 59.9959846,197.991548" id="Fill-268" fill="#A77860"></path>
                    <path d="M54.9216757,173.987371 C54.9216757,173.987371 57.8759545,168.2689 62.8620256,168.013527 C67.8502077,167.758153 70.8160967,172.083677 70.8160967,172.083677 C70.8160967,172.083677 68.8687425,167.213637 62.8683585,167.213637 C56.8690299,167.213637 54.9216757,173.987371 54.9216757,173.987371" id="Fill-269" fill="#23344A"></path>
                    <path d="M71.7227511,204.397312 C71.7227511,204.397312 71.5390982,214.314675 63.6736871,214.610149 C55.806165,214.904567 57.4442646,205.098007 57.4442646,205.098007 C57.4442646,205.098007 63.1987226,202.76693 71.7227511,204.397312" id="Fill-270" fill="#EEA886"></path>
                    <polygon id="Fill-271" fill="#807066" points="124.563073 357.729687 127.824495 357.729687 127.824495 255.951666 124.563073 255.951666"></polygon>
                    <polygon id="Fill-272" fill="#807066" points="0.867556188 357.729687 4.12792319 357.729687 4.12792319 255.951666 0.867556188 255.951666"></polygon>
                    <path d="M385.874891,166.003883 C385.874891,166.003883 395.974746,168.969173 395.357292,182.696036 C394.736672,196.422899 385.874891,166.003883 385.874891,166.003883" id="Fill-273" fill="#EEA886"></path>
                    <path d="M384.945121,166.003883 C384.945121,166.003883 385.724063,167.063368 384.748803,173.894086 C383.775653,180.723749 385.622737,183.580347 385.842277,186.423226 C386.062871,189.265049 389.397121,207.623462 389.487892,208.43496 C389.577608,209.247512 390.02513,219.018194 391.326533,221.610976 C392.62688,224.203757 402.186331,238.899352 402.315099,239.631704 C402.442811,240.367223 406.956029,237.073747 406.956029,237.073747 C406.956029,237.073747 398.372894,219.218694 397.816658,217.458515 C397.126376,215.27201 395.012257,209.857454 394.883488,207.024073 C394.56579,200.098381 395.193799,184.013004 394.949983,180.509531 C394.494018,173.950015 389.324294,167.046483 384.945121,166.003883" id="Fill-274" fill="#EEA886"></path>
                    <path d="M397.81803,224.61837 C397.81803,224.61837 399.322084,227.922399 400.211851,228.12712 C401.098451,228.332896 402.158149,229.432481 402.920203,229.77122 C403.681202,230.108904 406.077134,230.29252 406.723085,230.918291 C406.984844,231.17472 407.994935,233.378109 408.58389,233.839259 C409.176013,234.30252 410.483748,235.095023 410.078445,235.590996 C409.674198,236.085915 408.314744,235.698633 408.314744,235.698633 C408.314744,235.698633 408.827706,236.152396 408.609222,236.700078 C408.181754,237.768004 407.466141,237.816546 407.466141,237.816546 C407.466141,237.816546 407.695179,238.617491 407.404923,239.015325 C406.767415,239.891194 406.071856,239.917575 406.071856,239.917575 C406.071856,239.917575 406.01275,240.535959 405.456514,241.020325 C404.744067,241.638709 403.864855,241.286252 403.864855,241.286252 C403.864855,241.286252 403.154519,242.269757 402.498013,242.077699 C401.839395,241.887752 401.457313,241.395999 400.988681,241.110023 C400.518994,240.821936 397.237518,237.050425 396.026886,233.522681 C394.814144,229.99177 392.71269,227.12462 392.71269,227.12462 L397.81803,224.61837 Z" id="Fill-275" fill="#EEA987"></path>
                    <polygon id="Fill-276" fill="#214361" points="388.58261 250.053906 370.657452 227.95564 407.540024 198.047371 425.466238 220.143527"></polygon>
                    <path d="M408.131619,235.260699 C408.131619,235.260699 405.272333,232.084357 403.84744,232.145562 C402.422546,232.204657 403.39464,233.408712 403.39464,233.408712 C403.39464,233.408712 402.453155,232.203602 401.440953,232.842036 C400.42664,233.48047 401.636216,234.829096 401.636216,234.829096 C401.636216,234.829096 400.684176,234.105186 399.933733,235.107686 C399.184344,236.113352 400.435084,237.005049 400.435084,237.005049 C400.435084,237.005049 398.547892,236.727515 398.953195,238.267144 C399.633977,240.866257 402.4426,242.136794 402.4426,242.136794 C402.4426,242.136794 403.227875,242.355233 403.883326,241.337959 C403.883326,241.337959 405.645972,242.013328 406.130435,239.970338 C406.130435,239.970338 408.192836,239.49547 407.537385,237.848204 C407.537385,237.848204 409.709556,237.088415 408.131619,235.260699" id="Fill-277" fill="#DB9C7C"></path>
                    <path d="M376.641582,125.898713 C376.641582,125.898713 362.033787,124.684105 362.433813,140.046626 C362.833838,155.408092 365.268822,157.720173 362.424313,168.575665 C359.58297,179.431157 376.665858,162.410818 376.665858,162.410818 L376.641582,125.898713 Z" id="Fill-278" fill="#FCCCA2"></path>
                    <path d="M360.725946,220.830186 C360.725946,220.830186 355.347238,227.683065 353.448435,232.219642 C351.549633,236.753052 348.38637,246.691521 348.80856,254.38861 C349.229696,262.086755 351.759673,276.532252 351.021895,279.801457 C350.283061,283.069607 349.547394,289.820126 348.755787,292.138539 C347.963124,294.458007 344.800916,301.206415 344.482162,308.165876 C344.16763,315.125336 348.914108,345.705807 348.701957,348.551852 C348.490862,351.400007 354.081721,349.712642 354.081721,349.712642 C354.081721,349.712642 355.978413,322.085852 357.033889,317.340334 C358.08831,312.594815 359.353826,296.463007 360.304811,295.302218 C361.253684,294.142484 363.849101,282.121981 363.445909,280.223563 C363.044828,278.325144 373.8033,249.854144 374.435531,244.159944 C375.068817,238.466799 390.931573,220.830186 390.931573,220.830186 C390.931573,220.830186 377.073166,215.53171 360.725946,220.830186" id="Fill-279" fill="#EEA987"></path>
                    <path d="M386.396402,220.830186 C386.396402,220.830186 386.66977,223.703668 386.987469,224.757876 C387.303056,225.812084 394.581622,252.702299 395.3194,263.036492 C396.058234,273.369628 397.954925,282.134644 398.271568,284.342255 C398.588211,286.549865 397.954925,293.931431 397.322695,295.829849 C396.69152,297.727213 400.488069,342.542128 400.803656,343.597392 C401.120299,344.650544 398.271568,344.968178 396.269329,344.650544 C394.263924,344.335021 384.139793,311.75166 384.773079,306.269568 C385.406365,300.785365 386.036484,289.094105 384.245341,284.342255 C382.452086,279.59146 366.315961,245.214152 366.210413,243.105736 C366.104865,240.996265 359.22738,204.670942 386.396402,220.830186" id="Fill-280" fill="#EEA987"></path>
                    <path d="M353.980712,346.350784 C353.980712,346.350784 354.500007,349.990387 355.067853,350.984445 C355.636755,351.977447 357.195694,357.035324 357.907085,357.980839 C358.616365,358.927411 360.176359,366.017724 357.907085,366.868266 C355.636755,367.719863 350.291822,369.138137 348.496456,366.301589 C346.69898,363.465042 346.463608,360.627439 346.746476,358.453597 C347.030399,356.2787 349.186738,346.296966 349.15824,345.310295 C349.126576,344.322568 353.980712,346.350784 353.980712,346.350784" id="Fill-281" fill="#EEA987"></path>
                    <path d="M357.000853,356.016151 C357.000853,356.016151 357.243612,361.526735 353.082924,361.526735 C348.92118,361.526735 347.077262,356.512124 347.077262,356.512124 C347.077262,356.512124 345.659757,358.974053 347.077262,364.221877 C348.495823,369.468645 354.407547,368.381724 355.731114,368.191777 C357.054682,368.002885 363.330545,366.342956 357.000853,356.016151" id="Fill-282" fill="#FFFFFF"></path>
                    <path d="M400.354762,341.401178 C400.354762,341.401178 403.296375,346.661665 405.042133,347.727481 C407.219582,349.057112 411.443599,353.317209 412.919155,353.514544 C414.396822,353.710823 419.700591,354.651062 418.675724,357.645899 C417.835564,360.098331 405.183567,359.747983 403.756563,358.518602 C402.329559,357.288165 398.062267,352.873999 396.339729,352.972138 C394.617192,353.071333 395.258921,359.338541 395.258921,359.338541 L393.388617,359.338541 C393.388617,359.338541 392.734222,353.240175 392.656116,352.192299 C392.422856,349.08877 394.637246,346.804125 394.735405,345.035504 C394.833564,343.263717 394.933835,341.943583 394.933835,341.943583 L400.354762,341.401178 Z" id="Fill-283" fill="#FFFFFF"></path>
                    <path d="M412.497809,353.369762 C412.497809,353.369762 408.32551,354.810196 405.116861,352.966651 C401.907157,351.122051 395.746341,348.321383 393.567837,348.300277 C393.567837,348.300277 394.753137,344.668062 394.779524,344.26073 C394.804855,343.854454 394.933624,341.943372 394.933624,341.943372 L400.320776,341.080167 C400.320776,341.080167 403.813348,346.206635 405.352232,347.413856 C406.893228,348.622133 410.838599,351.632798 412.497809,353.369762" id="Fill-284" fill="#EEA987"></path>
                    <path d="M391.02245,220.356057 C391.02245,220.356057 392.523337,226.603214 393.077463,228.423543 C393.631588,230.240707 397.186433,258.460554 398.060367,276.111941 C398.060367,276.111941 376.783016,284.177317 347.515707,282.832912 C347.515707,282.832912 346.803261,250.408896 349.491559,241.234438 C352.181969,232.05998 357.050882,223.47647 360.726051,220.82987 C363.994862,218.474522 391.02245,220.356057 391.02245,220.356057" id="Fill-285" fill="#330695"></path>
                    <path d="M394.678409,183.415726 C394.439872,187.133418 392.91893,189.511981 392.602287,190.856386 C392.285644,192.200791 392.602287,195.285326 392.207539,198.370915 C391.81068,201.454394 390.626435,216.163707 391.022239,220.356268 C391.415931,224.547773 362.244671,222.654631 360.032392,221.388315 C360.032392,221.388315 364.94458,212.60536 365.076515,208.966812 C365.120845,207.717381 365.868122,203.826626 363.809943,200.980581 C362.724913,199.477886 360.710008,194.694378 358.700381,191.196181 C358.700381,191.196181 359.07402,190.471215 358.700381,191.196181 C357.921439,189.840168 357.105556,188.488376 356.535599,187.481654 C355.792543,186.166797 355.379852,184.609228 355.379852,184.609228 C355.379852,184.609228 354.081616,168.476365 357.639627,166.657091 C361.200805,164.837818 363.097496,164.522294 366.579513,164.362949 C370.059419,164.20466 372.355081,163.493412 372.355081,163.493412 L380.500193,164.362949 C380.500193,164.362949 383.375311,165.709465 385.432435,165.86881 C387.488503,166.026044 390.001593,170.492973 391.246,173.72841 C392.271923,176.396115 394.915892,179.699089 394.678409,183.415726" id="Fill-286" fill="#E8E8E8"></path>
                    <path d="M362.062813,164.973313 C362.062813,164.973313 355.615962,165.508332 353.189421,171.433634 C350.766047,177.357882 350.968699,183.373937 350.444127,185.562553 C349.9185,187.751169 349.150113,200.428045 348.597043,202.302192 C348.045029,204.174229 346.147282,212.862211 345.72298,219.883932 C345.298679,226.906708 346.344656,241.717327 346.344656,241.717327 L349.917444,239.981419 C349.917444,239.981419 353.099706,218.021392 354.477103,213.377179 C355.657125,209.407279 355.657125,202.65465 356.319965,200.215937 C356.980693,197.777224 361.029501,183.104845 361.681785,181.616924 C362.683433,179.338611 367.604064,164.899445 362.062813,164.973313" id="Fill-287" fill="#EEA886"></path>
                    <path d="M375.212889,127.454804 C378.833174,126.861746 387.117609,127.769272 389.466044,137.274027 C389.466044,137.274027 389.471321,139.909019 389.072351,142.023767 C388.675492,144.138514 391.19597,149.954069 390.75267,150.305472 C390.30937,150.656875 388.376792,151.263651 388.376792,151.263651 C388.376792,151.263651 387.006784,158.086983 384.687902,158.295925 C382.372186,158.502756 373.415413,157.697591 368.360735,149.981506 C363.301836,142.263312 360.592428,129.847085 375.212889,127.454804" id="Fill-288" fill="#EEA886"></path>
                    <path d="M381.222139,155.650169 C381.222139,155.650169 381.044819,156.605182 380.878054,158.010793 C380.793616,158.730482 380.711288,159.565195 380.658515,160.449506 C380.51497,162.899827 380.587798,165.734264 381.423735,167.532432 C381.423735,167.532432 376.879909,170.295111 372.019439,163.537206 C372.019439,163.537206 372.499681,155.149974 369.70689,150.692543 C366.914099,146.235111 381.222139,155.650169 381.222139,155.650169" id="Fill-289" fill="#EEA886"></path>
                    <path d="M389.466044,137.273711 C389.466044,137.273711 384.014508,141.978074 378.243162,143.461774 C372.471817,144.946529 369.416212,151.427956 369.416212,151.427956 C369.416212,151.427956 359.203421,141.244666 365.366349,131.361071 C371.529276,121.476421 389.454434,125.885311 389.466044,137.273711" id="Fill-290" fill="#FCCCA2"></path>
                    <path d="M380.877843,158.011109 C380.793405,158.730799 380.711077,159.565512 380.658304,160.449822 C375.568796,157.980507 372.763339,154.596278 372.763339,154.596278 C375.75456,156.737407 380.877843,158.011109 380.877843,158.011109" id="Fill-291" fill="#A77860"></path>
                    <path d="M377.182725,143.800091 C377.182725,143.800091 371.277334,159.67336 371.985558,163.493412 C371.985558,163.493412 368.859237,162.955228 363.29582,164.656312 C363.29582,164.656312 365.98623,136.339381 377.182725,143.800091" id="Fill-292" fill="#FCCCA2"></path>
                    <path d="M370.013928,164.005637 C370.013928,164.005637 371.958116,175.909006 379.156466,174.565656 C386.354816,173.21914 380.895891,164.498445 380.895891,164.498445 C380.895891,164.498445 377.697797,161.820187 370.013928,164.005637" id="Fill-293" fill="#EEA886"></path>
                    <path d="M350.004204,239.379708 C350.004204,239.379708 350.56994,241.263352 351.459706,243.160716 C351.892452,244.087237 352.54157,250.322787 352.565846,251.134284 C352.5859,251.813873 352.106714,251.447697 351.842844,251.018205 C351.691911,250.771273 351.120898,248.641752 350.634324,247.523173 C350.224799,246.583989 349.908156,246.24525 349.7625,246.56816 C349.614733,246.895292 349.608401,250.933784 350.106585,252.622205 C350.602659,254.309571 350.515055,258.294244 349.569348,257.790884 C348.622585,257.287523 345.972284,250.294294 345.945897,247.5886 C345.922677,244.880794 346.336423,241.611589 346.336423,241.611589 L350.004204,239.379708 Z" id="Fill-294" fill="#EEA886"></path>
                </g>
            </g>
        </g>
    </g>
</svg>